<?xml version="1.0" standalone="no"?>
<!DOCTYPE svg PUBLIC "-//W3C//DTD SVG 20010904//EN"
 "http://www.w3.org/TR/2001/REC-SVG-20010904/DTD/svg10.dtd">
<svg version="1.0" xmlns="http://www.w3.org/2000/svg"
 width="1060.000000pt" height="1060.000000pt" viewBox="0 0 1060.000000 1060.000000"
 preserveAspectRatio="xMidYMid meet">

<g transform="translate(0.000000,1060.000000) scale(0.100000,-0.100000)"
fill="#000000" stroke="none">
<path d="M7066 10156 c-3 -11 -6 -232 -6 -491 0 -683 -20 -2927 -28 -3154 l-7
-193 -47 -19 c-115 -46 -142 -58 -129 -59 11 0 11 -3 1 -15 -7 -8 -20 -15 -29
-14 -12 0 -12 2 3 8 11 4 15 10 9 14 -16 10 -485 -165 -470 -176 7 -5 3 -6
-10 -2 -13 3 -31 2 -40 -4 -14 -8 -15 -10 -3 -11 13 0 13 -1 0 -10 -21 -13
-33 -12 -24 2 5 8 2 9 -10 5 -10 -4 -21 -7 -26 -7 -5 0 -8 -9 -7 -20 1 -11 6
-20 12 -20 6 0 20 -7 31 -15 16 -13 13 -13 -20 1 -21 8 -45 13 -52 10 -8 -3
-14 -1 -14 4 0 5 10 10 23 12 12 2 17 6 12 10 -6 3 -60 -14 -120 -39 -61 -25
-120 -47 -132 -50 -13 -3 -20 -9 -17 -14 3 -5 -3 -6 -12 -2 -15 6 -16 1 -9
-48 4 -30 7 -65 7 -79 0 -46 22 -141 33 -137 5 3 11 -7 12 -21 1 -19 -1 -22
-9 -11 -12 17 -3 -27 14 -68 6 -15 12 -34 14 -41 5 -25 14 -26 15 -1 0 13 3
18 6 11 6 -15 -15 -62 -32 -74 -5 -4 -10 -13 -10 -19 0 -7 -7 -14 -15 -16 -13
-4 -13 -3 0 6 9 6 10 11 3 11 -23 0 -43 -12 -36 -23 3 -5 2 -8 -3 -4 -5 3 -68
-25 -139 -63 -102 -53 -129 -72 -127 -87 2 -15 1 -16 -7 -3 -9 13 -16 12 -55
-9 -31 -18 -42 -29 -38 -40 5 -13 3 -14 -10 -3 -12 10 -19 8 -39 -10 -14 -13
-37 -29 -52 -36 -16 -6 -26 -16 -23 -21 3 -5 -1 -11 -9 -14 -10 -4 -12 -1 -8
10 5 13 -2 11 -28 -7 -19 -13 -38 -30 -42 -37 -4 -7 -16 -13 -25 -13 -16 -1
-16 -1 1 -11 9 -5 17 -15 17 -22 0 -9 -2 -9 -8 -1 -4 6 -18 15 -31 19 -20 6
-23 4 -18 -9 4 -10 3 -14 -3 -11 -5 3 -39 -13 -76 -37 -37 -23 -62 -44 -55
-46 8 -3 17 1 21 8 4 7 13 9 21 5 16 -11 -27 -28 -51 -20 -18 6 -75 -33 -65
-43 3 -4 11 0 16 8 9 13 10 13 6 0 -2 -8 -13 -15 -24 -15 -11 -1 -31 -9 -44
-18 -13 -10 -18 -15 -10 -11 9 5 12 3 7 -4 -4 -6 -13 -9 -21 -5 -8 3 -15 0
-15 -6 0 -6 -15 -18 -32 -27 -45 -23 -109 -74 -104 -83 3 -4 -4 -13 -16 -20
-16 -10 -19 -10 -12 0 4 7 -7 3 -24 -10 -18 -12 -30 -27 -27 -32 4 -5 -2 -6
-11 -2 -13 5 -16 3 -11 -10 4 -10 2 -17 -5 -17 -7 0 -6 -5 2 -15 15 -18 -1
-20 -18 -3 -6 6 -15 8 -19 4 -4 -4 -1 -11 7 -17 11 -7 8 -8 -11 -3 -17 3 -30
1 -35 -7 -5 -9 -2 -10 11 -5 18 7 18 6 0 -14 -17 -19 -17 -24 -5 -43 12 -21
12 -21 -6 -7 -10 8 -21 16 -23 17 -2 1 2 9 9 18 16 20 -5 21 -25 1 -12 -12
-12 -16 1 -26 8 -7 12 -15 9 -18 -2 -3 -12 1 -20 8 -13 11 -20 9 -45 -15 -17
-16 -30 -34 -30 -40 0 -13 -32 -45 -44 -45 -4 0 -4 6 1 12 4 7 -7 2 -24 -12
-30 -24 -46 -49 -21 -34 7 4 8 3 4 -5 -4 -6 -12 -9 -17 -6 -5 4 -14 3 -20 -1
-8 -4 -7 -9 2 -15 11 -7 10 -9 -4 -9 -10 0 -30 -11 -44 -24 -24 -22 -25 -27
-12 -43 13 -17 13 -17 -4 -4 -16 13 -22 10 -62 -29 -33 -33 -44 -49 -39 -65 4
-15 3 -16 -4 -6 -8 11 -14 10 -31 -6 -13 -12 -19 -26 -15 -36 3 -10 -2 -20
-15 -27 -12 -6 -21 -7 -21 -3 0 3 -13 -6 -30 -22 -16 -16 -30 -34 -30 -39 0
-6 7 -2 15 8 8 11 15 15 15 9 0 -17 -28 -35 -41 -27 -9 5 -10 -1 -5 -22 4 -19
4 -24 -3 -15 -7 11 -14 9 -35 -14 -15 -16 -24 -35 -21 -42 3 -7 8 -21 11 -30
5 -15 4 -16 -5 -3 -10 13 -12 13 -22 0 -8 -12 -9 -10 -4 8 8 28 -1 29 -16 0
-10 -18 -8 -24 7 -36 18 -14 18 -14 -1 -8 -37 13 -39 11 -40 -34 0 -40 -3 -45
-22 -46 l-23 -1 21 36 21 36 -36 -40 c-20 -22 -36 -46 -36 -52 0 -7 -5 -13
-11 -13 -6 0 -9 -7 -5 -15 3 -8 0 -14 -6 -12 -12 2 -46 -51 -47 -75 -1 -9 -5
-20 -11 -23 -6 -4 -7 1 -4 12 6 15 4 15 -9 -2 -9 -11 -17 -25 -17 -32 0 -6 -4
-13 -8 -15 -17 -7 -51 -79 -46 -96 5 -13 4 -14 -4 -3 -8 11 -12 10 -21 -7 -16
-29 -14 -37 6 -21 15 13 15 12 4 -9 -7 -13 -18 -21 -25 -19 -19 8 -68 -97 -53
-112 9 -9 8 -11 -4 -6 -11 4 -22 -8 -41 -47 -14 -29 -29 -64 -33 -78 -4 -14
-12 -31 -17 -37 -7 -9 -7 -13 0 -13 6 0 15 12 20 28 l10 27 -1 -32 c-1 -17 -5
-29 -9 -27 -4 3 -6 -8 -4 -23 2 -15 1 -21 -1 -13 -9 29 -20 30 -31 5 -7 -15
-8 -25 -2 -25 6 0 10 -4 10 -10 0 -5 -7 -6 -17 -3 -10 4 -14 2 -9 -5 3 -6 2
-13 -2 -16 -5 -3 -15 -26 -22 -51 -10 -37 -10 -48 1 -62 13 -16 12 -17 -3 -5
-17 14 -19 9 -33 -80 -4 -26 -3 -29 4 -13 5 11 10 31 11 45 2 24 2 24 10 -4 8
-25 5 -33 -15 -52 -29 -26 -37 -76 -40 -248 -3 -166 30 -356 55 -316 4 6 7 -6
7 -28 0 -22 7 -52 16 -68 19 -34 49 -103 53 -123 3 -16 64 -81 76 -81 12 0 9
35 -4 48 -8 8 -9 12 -1 12 6 0 9 10 7 23 -4 22 -4 22 6 -1 5 -13 7 -29 3 -34
-3 -6 -1 -8 5 -5 11 8 5 -31 -9 -49 -5 -6 21 -39 67 -85 41 -41 72 -66 68 -56
-3 9 -10 17 -15 17 -5 0 -9 5 -9 12 0 6 -6 19 -13 27 -26 31 -105 217 -123
288 -10 39 -21 70 -25 68 -3 -3 -4 7 -1 20 2 14 0 25 -4 25 -17 0 -16 328 1
423 8 49 13 92 10 97 -3 4 -2 10 2 12 7 2 21 41 58 153 4 12 3 15 -2 9 -6 -9
-12 -8 -22 3 -11 12 -11 14 0 12 25 -3 39 1 39 11 0 6 22 57 48 113 45 96 55
136 30 121 -7 -4 -8 -2 -4 5 6 9 11 9 24 -1 13 -11 14 -11 4 7 -8 16 -6 26 8
45 10 14 22 21 26 17 4 -4 2 -7 -5 -7 -7 0 -9 -5 -6 -10 3 -6 -1 -13 -9 -16
-9 -3 -13 -11 -10 -16 9 -14 43 42 36 60 -3 10 -1 13 7 8 8 -5 16 3 24 23 6
17 16 31 22 31 5 0 3 5 -5 10 -13 9 -12 11 5 16 11 3 39 35 63 72 24 36 37 60
29 54 -11 -9 -14 -8 -14 3 0 7 3 14 6 13 21 -2 31 5 31 21 0 11 4 23 10 26 6
4 7 -1 3 -12 -3 -10 11 3 31 30 21 26 34 52 30 59 -4 6 -3 8 3 5 6 -4 21 5 33
18 13 14 19 25 15 25 -5 0 1 7 13 16 12 8 22 20 22 26 0 7 -6 4 -13 -7 -11
-14 -16 -15 -22 -5 -5 9 -4 11 3 6 16 -10 15 7 0 23 -11 11 -10 12 2 5 25 -14
49 -12 42 4 -3 9 -1 13 5 9 12 -7 96 76 87 86 -4 4 -2 7 4 7 7 0 11 3 9 8 -1
4 3 8 8 10 6 1 55 48 111 103 94 94 109 117 91 146 -4 6 -1 16 7 22 10 9 17 7
27 -6 12 -14 12 -16 0 -8 -10 6 -12 4 -6 -5 5 -8 4 -11 -2 -7 -5 3 -10 0 -10
-8 0 -8 3 -15 6 -15 10 0 32 40 27 49 -3 4 1 8 9 8 8 0 12 -4 9 -9 -14 -23 15
-1 86 64 44 39 77 75 73 81 -3 5 -9 3 -14 -4 -5 -8 -9 -9 -9 -4 0 6 -4 4 -8
-3 -7 -9 -13 -7 -28 9 -10 13 -13 19 -6 15 6 -4 12 -2 12 4 0 6 5 8 11 4 8 -4
7 -9 -2 -16 -11 -7 -9 -8 4 -4 10 3 21 6 23 6 3 0 3 4 0 8 -3 5 1 9 9 9 8 0
11 -5 8 -10 -4 -6 1 -8 11 -4 12 5 15 3 10 -6 -4 -6 7 1 25 18 18 16 27 31 21
33 -5 2 -10 8 -10 13 0 6 8 5 20 -1 16 -8 20 -8 20 4 0 8 -8 16 -17 18 -15 3
-14 5 5 10 12 3 20 2 17 -2 -3 -5 0 -12 6 -16 13 -7 61 40 51 50 -3 4 1 4 10
1 9 -4 19 -1 24 6 5 8 3 10 -6 4 -8 -5 -11 -4 -6 3 4 6 13 9 20 6 8 -3 26 10
41 28 15 18 23 26 19 18 -7 -13 -5 -13 8 -2 11 8 15 23 12 40 -3 20 -2 23 5
12 9 -12 11 -12 17 3 3 9 10 14 16 11 5 -3 1 -15 -9 -27 -10 -12 2 -6 27 13
25 19 47 37 50 40 3 4 13 9 23 13 11 4 15 12 11 18 -4 8 -3 9 4 5 17 -10 74
35 67 52 -4 12 -3 13 10 2 14 -12 20 -7 16 14 -1 5 6 6 15 2 11 -4 15 -2 11 8
-3 8 1 17 9 20 9 4 12 2 8 -5 -4 -7 -1 -10 7 -7 8 3 14 9 14 14 0 5 4 14 8 21
4 6 1 13 -5 16 -7 2 -1 4 14 4 l27 1 -22 -19 c-43 -36 -7 -18 74 36 45 30 74
55 65 55 -9 0 -14 5 -11 10 4 6 12 8 18 4 7 -3 3 2 -7 10 -23 18 -14 21 15 5
11 -5 17 -15 13 -22 -3 -7 4 -1 16 13 12 14 18 18 14 10 -6 -11 0 -10 21 4 17
11 42 26 58 34 15 7 25 17 22 22 -3 5 0 12 6 16 8 5 9 3 4 -6 -5 -8 -3 -11 6
-8 8 3 13 11 11 18 -2 7 3 10 11 7 16 -6 35 21 31 45 -2 16 0 17 29 1 25 -12
29 -13 20 -2 -10 12 -8 15 7 15 10 0 16 -4 13 -9 -3 -5 9 0 27 10 18 10 43 24
57 31 19 11 22 16 12 28 -10 12 -9 13 6 8 14 -6 16 -4 10 6 -5 9 -4 11 4 6 6
-4 8 -12 4 -19 -3 -6 34 11 83 38 90 49 445 227 531 266 26 12 114 54 195 95
132 65 325 154 334 154 2 0 4 -40 4 -89 0 -59 -4 -92 -13 -99 -7 -6 -102 -56
-212 -112 -525 -268 -641 -331 -630 -342 4 -3 -2 -5 -12 -5 -10 1 -17 -4 -15
-11 1 -8 -2 -11 -6 -8 -12 7 -92 -32 -92 -45 0 -6 -6 -7 -12 -3 -8 5 -7 0 2
-11 14 -17 14 -18 -4 -8 -15 8 -33 2 -95 -35 -42 -24 -82 -53 -89 -63 -7 -11
-18 -19 -24 -19 -7 0 -3 7 8 16 18 14 18 15 -3 4 -13 -6 -22 -14 -20 -18 1 -4
-9 -18 -22 -31 -23 -23 -24 -23 -19 -3 6 20 2 19 -39 -9 -24 -17 -42 -34 -39
-37 3 -3 17 5 31 18 14 13 27 21 30 18 11 -11 -48 -48 -66 -43 -13 4 -52 -16
-120 -62 -55 -37 -115 -76 -132 -86 -18 -11 -36 -24 -42 -30 -5 -6 4 -3 20 7
l30 17 -24 -21 c-13 -11 -30 -19 -36 -16 -6 2 -30 -10 -53 -27 -22 -18 -66
-50 -96 -71 -30 -21 -53 -43 -50 -47 3 -5 -2 -6 -10 -3 -9 4 -18 -1 -22 -10
-3 -9 -10 -16 -16 -16 -5 0 -24 -12 -43 -27 -24 -20 -31 -31 -24 -39 8 -9 5
-11 -10 -7 -14 4 -44 -15 -108 -67 -127 -105 -283 -252 -283 -267 0 -7 -8 -13
-18 -13 -22 0 -46 -36 -30 -46 6 -4 8 -3 5 3 -4 6 1 17 10 24 15 12 16 12 8
-1 -6 -8 -10 -19 -10 -25 0 -5 -9 -10 -20 -10 -26 1 -208 -181 -199 -198 4 -7
3 -9 -1 -4 -12 11 -45 -22 -38 -39 3 -9 0 -14 -7 -12 -7 2 -48 -44 -92 -102
-45 -58 -77 -102 -73 -98 5 4 15 2 24 -5 14 -10 14 -10 5 3 -9 11 -9 18 1 27
11 10 13 7 11 -15 -2 -15 -7 -27 -12 -27 -5 0 -15 -4 -23 -9 -10 -6 -12 -5 -7
2 4 7 3 12 -2 12 -16 0 -123 -169 -116 -183 4 -6 4 -9 -1 -5 -15 14 -91 -114
-79 -133 3 -5 1 -8 -4 -7 -6 2 -9 0 -8 -3 0 -4 -6 -15 -15 -25 -9 -11 -22 -30
-29 -43 -10 -19 -10 -22 2 -15 8 4 7 0 -3 -12 -9 -10 -26 -38 -38 -62 -21 -42
-22 -45 -5 -70 l17 -27 -23 20 -23 20 5 -23 c4 -12 2 -20 -2 -17 -5 3 -14 -11
-20 -30 -9 -29 -9 -39 2 -52 11 -14 11 -16 -4 -11 -19 8 -33 -31 -22 -64 4
-12 2 -18 -4 -14 -8 5 -22 -44 -22 -82 0 -7 29 18 65 55 36 37 65 62 65 55 0
-6 5 -12 11 -12 5 0 7 5 4 10 -9 15 22 60 40 60 10 0 15 10 15 28 0 17 3 22 8
15 6 -9 24 5 61 47 32 36 62 60 75 61 11 0 16 3 10 5 -7 3 2 20 23 42 25 26
36 33 42 23 6 -8 10 -3 14 18 8 38 37 43 37 6 0 -21 5 -25 29 -25 38 0 44 -21
15 -49 -19 -18 -24 -20 -24 -7 0 9 -4 16 -9 16 -5 0 -7 -9 -4 -21 4 -15 0 -22
-16 -26 -13 -3 -20 -11 -17 -19 4 -10 -3 -14 -19 -14 -14 0 -25 5 -25 12 0 14
-32 -19 -49 -49 -14 -27 -14 -36 -1 -28 27 17 -16 -44 -50 -70 -22 -16 -39
-33 -40 -37 0 -13 -34 -48 -45 -48 -6 0 -16 -9 -23 -20 -8 -13 -23 -20 -42
-20 -33 0 -40 -14 -13 -24 14 -6 13 -10 -12 -26 -20 -13 -31 -16 -36 -8 -4 6
-12 7 -18 3 -9 -5 -9 -10 0 -21 10 -12 8 -19 -9 -35 -12 -11 -22 -15 -22 -9 0
6 -7 18 -15 26 -13 14 -15 13 -16 -3 -1 -10 -5 -2 -9 17 -5 22 -8 -22 -9 -114
0 -82 1 -147 4 -145 2 3 9 23 13 45 l9 39 1 -52 c0 -35 -4 -51 -11 -46 -7 4
-8 -5 -4 -27 4 -18 7 -40 7 -49 0 -14 2 -14 11 -1 7 11 8 4 4 -25 -4 -29 -3
-35 4 -20 9 19 10 19 10 -3 1 -15 5 -21 13 -16 7 4 8 3 4 -5 -4 -6 -12 -8 -18
-5 -7 5 -9 2 -6 -7 3 -8 13 -38 23 -66 11 -29 24 -53 31 -53 6 0 15 -7 18 -16
10 -26 7 -29 -9 -8 -8 10 -14 15 -14 9 0 -17 26 -45 34 -37 5 4 5 2 1 -5 -4
-7 3 -29 14 -50 12 -21 19 -29 15 -19 -5 16 -3 17 10 6 12 -10 15 -10 15 0 0
8 3 10 6 7 4 -4 1 -14 -6 -23 -12 -13 -11 -21 4 -49 10 -19 25 -36 32 -39 8
-3 14 -12 14 -20 0 -8 5 -18 12 -22 7 -5 8 -3 3 6 -6 9 -4 11 4 6 7 -5 10 -14
7 -21 -2 -7 15 -34 39 -61 37 -41 46 -46 55 -34 6 9 10 10 10 3 0 -6 -5 -15
-11 -18 -7 -5 -2 -16 12 -31 17 -18 25 -21 36 -12 11 8 12 7 7 -6 -3 -9 -1
-16 6 -16 6 0 8 -5 4 -12 -4 -7 -3 -8 4 -4 9 5 8 17 -3 43 -8 19 -15 38 -15
41 0 3 -5 1 -12 -6 -7 -7 -16 -12 -21 -12 -5 0 -2 7 7 15 15 16 11 49 -5 39
-5 -3 -8 3 -7 13 3 20 -32 165 -41 173 -16 13 -13 315 4 410 10 56 11 89 5
108 -10 25 -9 26 5 8 15 -20 15 -20 17 0 0 10 1 27 0 36 -1 10 3 18 9 18 7 0
9 10 5 28 -5 21 -4 24 5 12 9 -12 10 -11 6 8 -3 12 -2 20 3 17 4 -2 14 13 23
35 8 22 11 40 7 40 -5 0 -7 7 -4 15 4 8 10 13 14 10 4 -3 27 32 50 78 24 45
63 113 86 150 24 37 44 74 44 83 0 8 4 13 9 10 10 -7 25 22 22 43 -1 7 2 10 7
7 10 -6 52 46 52 64 0 6 5 8 12 4 7 -5 8 -3 3 5 -4 8 1 25 14 42 23 31 27 44
9 33 -7 -5 -8 -3 -3 5 5 9 10 10 18 2 7 -7 6 -16 -5 -28 -8 -10 -18 -25 -22
-33 -4 -8 7 3 26 24 18 22 32 41 32 42 -1 1 29 35 67 75 61 65 86 101 61 85
-5 -3 -9 1 -9 9 0 18 13 20 20 3 4 -10 8 -10 16 2 5 8 7 18 4 24 -3 5 -1 6 6
2 18 -11 51 35 40 56 -12 22 -11 38 1 38 6 0 10 -7 10 -15 0 -27 26 -16 66 28
21 23 50 50 64 60 21 15 23 19 10 28 -13 10 -13 10 1 6 9 -3 22 -1 30 4 11 7
10 9 -4 9 -10 0 -16 4 -13 9 3 5 14 7 24 5 11 -2 45 24 97 73 44 42 72 71 63
64 -12 -9 -18 -10 -18 -2 0 6 12 14 28 17 15 4 45 23 68 43 56 50 139 118 197
164 27 21 46 41 44 44 -3 2 -20 -9 -37 -26 -18 -17 -36 -28 -41 -25 -5 3 -18
0 -30 -7 -16 -8 -18 -13 -9 -19 8 -5 8 -10 2 -14 -21 -13 -20 24 1 39 13 9 16
15 8 15 -8 0 -12 3 -9 6 4 3 15 1 26 -5 16 -8 24 -5 47 19 16 17 23 30 17 30
-22 0 -13 17 16 29 25 11 26 10 7 -4 -17 -14 -18 -17 -5 -25 23 -15 33 -12 26
6 -5 13 -3 14 6 6 10 -8 22 -3 48 20 19 16 31 27 25 25 -5 -3 -10 7 -10 22 0
20 5 28 20 29 16 1 17 -1 5 -9 -11 -8 -12 -12 -2 -16 6 -2 9 -10 6 -15 -4 -7
-2 -8 5 -4 6 4 9 11 6 16 -3 4 2 11 11 14 9 4 13 2 8 -5 -4 -6 16 6 43 27 28
22 49 42 47 45 -2 4 4 6 14 5 9 0 16 4 15 11 -2 7 4 10 12 7 8 -4 17 1 21 10
3 9 12 16 19 16 8 0 17 5 21 12 4 6 3 8 -2 5 -6 -3 -10 3 -11 13 -1 10 7 21
20 25 30 10 59 14 52 6 -4 -3 -14 -6 -23 -6 -9 0 -16 -5 -15 -12 2 -8 -4 -10
-15 -7 -13 5 -14 4 -3 -4 10 -7 35 5 95 45 93 63 104 72 59 49 -44 -22 -42
-13 3 13 19 12 32 17 29 11 -10 -16 5 -12 41 11 33 20 44 39 23 39 -5 0 -7 -4
-4 -10 3 -5 1 -10 -4 -10 -6 0 -11 6 -11 13 0 8 -4 7 -11 -3 -7 -10 -9 -11 -7
-2 2 8 6 12 8 11 3 -1 16 3 29 10 13 7 21 8 17 3 -3 -6 -2 -13 4 -17 9 -6 14
7 11 28 0 4 6 7 15 7 9 0 12 5 8 12 -4 7 -3 8 5 4 9 -6 9 -11 -1 -24 -12 -13
-10 -14 9 -3 15 7 20 17 17 29 -5 13 -4 14 4 3 8 -10 14 -11 32 -1 13 7 19 15
14 19 -12 8 -12 27 0 38 5 4 7 4 4 -2 -3 -5 0 -16 8 -23 14 -12 15 -12 18 7 2
15 16 25 16 12 0 -7 5 -9 10 -6 6 4 8 10 6 14 -3 4 -1 13 4 21 7 11 11 11 24
1 9 -8 16 -9 16 -3 0 6 -5 12 -12 14 -6 2 -12 12 -14 21 -1 9 2 14 7 11 6 -3
17 0 25 7 8 6 17 9 21 5 3 -3 0 -6 -7 -6 -9 0 -7 -5 5 -14 17 -12 24 -12 50 1
16 9 32 19 35 22 3 4 18 12 34 19 26 12 27 14 13 30 -15 17 -15 18 7 17 14 0
27 -3 31 -7 8 -7 184 91 383 214 78 48 146 88 150 88 4 0 6 -60 5 -132 -2 -73
-8 -418 -13 -767 -6 -349 -12 -636 -14 -638 -2 -3 -53 11 -113 31 -198 64
-296 79 -498 80 -203 1 -274 -9 -440 -61 -477 -152 -805 -515 -805 -893 0
-329 262 -646 620 -749 124 -36 140 -42 136 -49 -2 -4 8 -7 22 -8 15 -1 74 -9
132 -19 174 -28 411 -9 617 50 98 28 299 124 408 196 156 101 293 261 358 414
50 119 52 148 39 602 -25 822 -62 2139 -62 2181 0 26 4 41 10 37 6 -3 10 -2
10 3 0 6 14 15 30 21 17 5 33 17 36 25 3 9 11 13 17 9 6 -4 8 0 4 9 -4 11 0
15 11 12 9 -2 31 8 47 22 17 14 25 23 18 20 -6 -4 -15 -1 -18 5 -4 5 -14 8
-22 5 -8 -3 -11 -1 -8 5 4 5 12 8 18 6 7 -2 20 0 30 5 9 5 17 5 16 1 -4 -23 5
-21 47 13 30 25 44 43 41 55 -3 12 0 16 9 12 8 -3 11 -10 8 -17 -3 -6 0 -4 8
4 7 8 33 31 58 50 25 18 47 35 50 37 2 2 -2 9 -10 14 -12 9 -12 10 3 5 20 -6
51 17 39 29 -4 4 0 6 8 3 32 -10 358 285 547 493 369 408 573 758 654 1121 16
69 22 142 26 283 4 165 2 207 -17 319 -22 130 -59 270 -106 404 -15 40 -28 71
-30 69 -2 -2 7 -35 20 -73 85 -244 108 -581 56 -826 -92 -435 -363 -828 -805
-1162 -96 -73 -415 -286 -428 -286 -3 0 -76 -38 -162 -85 -87 -47 -162 -85
-168 -85 -5 0 -5 -5 2 -13 8 -10 7 -14 -4 -14 -8 0 -15 4 -15 8 0 5 -7 6 -16
2 -15 -6 -16 -19 -9 -117 5 -61 9 -144 9 -183 0 -40 4 -73 8 -73 5 0 8 -5 8
-11 0 -5 -4 -7 -10 -4 -6 4 -10 -10 -10 -35 0 -25 4 -39 10 -35 6 3 10 0 10
-8 0 -8 -7 -18 -15 -21 -14 -5 -16 10 -15 117 1 121 -15 418 -26 489 -8 50 2
75 32 82 14 4 22 11 19 15 -3 5 3 7 12 5 10 -3 34 5 53 18 19 12 42 23 50 25
17 3 206 96 296 146 167 93 455 316 619 482 243 244 376 486 445 810 28 129
38 401 20 524 -18 123 -27 138 -22 37 14 -270 -126 -597 -363 -844 -169 -178
-333 -294 -599 -428 -94 -47 -173 -90 -174 -95 -2 -5 -7 -7 -12 -4 -7 4 -97
-30 -232 -88 -15 -6 -24 -15 -21 -21 3 -5 1 -6 -5 -2 -16 10 -63 -4 -55 -17 4
-6 0 -8 -10 -4 -25 10 -47 -2 -48 -27 -1 -17 -2 -16 -9 7 -5 16 -13 131 -19
255 -10 222 -16 365 -46 1292 -8 250 -18 523 -22 607 l-6 152 38 7 c71 13 284
-3 391 -30 408 -101 748 -365 914 -710 69 -144 94 -253 87 -386 -4 -92 -4
-101 8 -73 7 17 23 69 34 115 96 384 11 826 -219 1138 -119 162 -273 296 -585
510 -473 324 -667 518 -821 816 -34 66 -43 77 -48 60z m658 -3617 c-4 -7 0 -9
13 -5 29 9 41 -11 47 -84 3 -36 3 -55 0 -43 -3 14 -10 20 -20 16 -9 -3 -12
-12 -8 -25 8 -26 -14 -52 -32 -37 -17 14 -40 1 -25 -14 17 -17 13 -34 -9 -40
-23 -6 -101 74 -78 82 7 2 38 32 70 65 54 58 55 62 36 72 -16 9 -18 13 -7 17
21 8 21 8 13 -4z m-44 -29 c8 -5 11 -12 7 -17 -5 -4 -12 -2 -16 5 -4 7 -16 10
-27 6 -16 -5 -16 -4 -4 5 18 13 21 13 40 1z m-80 -30 c-34 -11 -60 -11 -35 0
11 5 29 8 40 8 16 0 15 -2 -5 -8z m70 -5 c11 -13 10 -14 -4 -9 -9 3 -16 10
-16 15 0 13 6 11 20 -6z m-119 -23 c-7 -2 -18 1 -23 6 -8 8 -4 9 13 5 13 -4
18 -8 10 -11z m72 11 c-7 -2 -19 -2 -25 0 -7 3 -2 5 12 5 14 0 19 -2 13 -5z
m-193 -63 c-8 -5 -19 -10 -25 -10 -5 0 -3 5 5 10 8 5 20 10 25 10 6 0 3 -5 -5
-10z m7 -23 c0 -8 -12 -14 -30 -14 l-29 0 24 13 c30 17 35 17 35 1z m340 -89
c-3 -7 -5 -2 -5 12 0 14 2 19 5 13 2 -7 2 -19 0 -25z m-757 -35 c0 -45 -5 -40
-13 10 -3 22 -2 35 4 32 5 -4 9 -22 9 -42z m393 17 c-3 -12 -8 -19 -11 -16 -5
6 5 36 12 36 2 0 2 -9 -1 -20z m394 -32 c-2 -13 -4 -5 -4 17 -1 22 1 32 4 23
2 -10 2 -28 0 -40z m-847 35 c0 -10 -49 -33 -69 -33 -9 1 2 9 24 20 47 23 45
22 45 13z m53 -74 c5 -4 6 -13 2 -20 -6 -9 -10 -8 -16 7 -4 10 -8 26 -8 34 1
13 1 13 6 0 3 -8 10 -18 16 -21z m368 -10 c-5 -13 -10 -19 -10 -12 -1 15 10
45 15 40 3 -2 0 -15 -5 -28z m-403 -4 c-3 -3 -9 2 -12 12 -6 14 -5 15 5 6 7
-7 10 -15 7 -18z m429 -17 c-3 -7 -5 -2 -5 12 0 14 2 19 5 13 2 -7 2 -19 0
-25z m-696 15 c-11 -5 -11 -7 0 -14 12 -7 11 -9 -1 -9 -13 0 -13 -1 0 -10 13
-9 13 -10 0 -9 -8 0 -24 4 -35 9 -19 8 -19 9 3 9 12 1 21 4 21 9 -3 15 1 22
14 21 8 0 8 -2 -2 -6z m-72 -37 c-2 -2 -17 -6 -34 -9 l-30 -6 30 13 c26 12 47
13 34 2z m788 -18 c-3 -8 -6 -5 -6 6 -1 11 2 17 5 13 3 -3 4 -12 1 -19z m-50
-45 c-3 -10 -5 -4 -5 12 0 17 2 24 5 18 2 -7 2 -21 0 -30z m424 28 c-12 -8
-12 -10 1 -12 13 -3 12 -7 -3 -23 -17 -18 -18 -17 -12 5 5 19 3 21 -13 16 -18
-7 -18 -7 0 8 11 8 25 15 30 15 6 0 5 -4 -3 -9z m-1371 -46 c0 -2 -9 -3 -19
-2 -11 0 -18 5 -15 9 4 6 34 0 34 -7z m45 -15 c3 -6 -1 -7 -9 -4 -18 7 -21 14
-7 14 6 0 13 -4 16 -10z m-42 -7 c-7 -2 -19 -2 -25 0 -7 3 -2 5 12 5 14 0 19
-2 13 -5z m574 -65 c-2 -13 -4 -3 -4 22 0 25 2 35 4 23 2 -13 2 -33 0 -45z
m370 30 c-3 -7 -5 -2 -5 12 0 14 2 19 5 13 2 -7 2 -19 0 -25z m293 24 c0 -5
-10 -14 -22 -21 l-23 -12 23 5 c30 6 28 -1 -8 -19 -38 -19 -49 -19 -24 1 13
11 14 14 3 11 -9 -3 -16 1 -16 8 0 7 6 11 13 8 6 -2 18 3 25 11 15 17 29 21
29 8z m70 4 c0 -2 -7 -7 -16 -10 -8 -3 -12 -2 -9 4 6 10 25 14 25 6z m-1303
-42 c-3 -3 -12 -4 -19 -1 -8 3 -5 6 6 6 11 1 17 -2 13 -5z m1090 -48 c0 -8 -6
-12 -15 -9 -11 5 -11 7 0 14 7 5 13 9 14 9 0 0 1 -6 1 -14z m-597 0 c0 -3 -4
-8 -10 -11 -5 -3 -10 -1 -10 4 0 6 5 11 10 11 6 0 10 -2 10 -4z m550 0 c0 -2
-9 -6 -20 -9 -11 -3 -18 -1 -14 4 5 9 34 13 34 5z m-512 -31 c-2 -1 -16 -5
-33 -9 l-30 -6 25 14 c14 8 28 12 33 9 5 -3 7 -6 5 -8z m525 8 c-7 -2 -19 -2
-25 0 -7 3 -2 5 12 5 14 0 19 -2 13 -5z m-63 -13 c0 -5 -4 -10 -10 -10 -5 0
-10 5 -10 10 0 6 5 10 10 10 6 0 10 -4 10 -10z m40 -4 c0 -2 -7 -7 -16 -10 -8
-3 -12 -2 -9 4 6 10 25 14 25 6z m-1430 -10 c0 -2 -9 -6 -20 -9 -11 -3 -18 -1
-14 4 5 9 34 13 34 5z m1344 -11 c3 -8 1 -15 -4 -15 -6 0 -10 7 -10 15 0 8 2
15 4 15 2 0 6 -7 10 -15z m-1414 -10 c0 -8 -2 -15 -4 -15 -2 0 -6 7 -10 15 -3
8 -1 15 4 15 6 0 10 -7 10 -15z m1879 -7 c0 -13 -3 -17 -6 -10 -4 9 -11 8 -33
-5 -27 -15 -27 -18 -12 -30 15 -13 15 -13 -5 -4 -31 15 -41 13 -19 -4 18 -13
18 -14 -2 -12 -31 2 -19 26 29 57 24 16 45 29 47 29 1 1 2 -9 1 -21z m-117
-60 c-7 -7 -12 -8 -12 -2 0 14 12 26 19 19 2 -3 -1 -11 -7 -17z m-1127 -25
c-11 -3 -26 -10 -32 -15 -9 -7 -13 -7 -13 0 0 13 18 21 45 20 l20 0 -20 -5z
m1059 -9 c-15 -12 -15 -14 -2 -11 11 4 15 0 14 -11 -2 -9 -9 -18 -17 -20 -11
-3 -12 -2 -1 6 11 7 10 10 -3 16 -24 9 -27 8 -19 -6 4 -7 3 -8 -4 -4 -6 4 -23
-1 -37 -10 -14 -9 -28 -14 -32 -11 -3 4 5 11 18 16 13 5 38 19 54 30 35 24 58
28 29 5z m-1681 -59 c3 -36 2 -52 -3 -40 -8 19 -14 113 -6 104 2 -2 6 -31 9
-64z m624 39 c-3 -3 -12 -4 -19 -1 -8 3 -5 6 6 6 11 1 17 -2 13 -5z m1280 -26
c-3 -8 -6 -5 -6 6 -1 11 2 17 5 13 3 -3 4 -12 1 -19z m-30 -20 c-3 -7 -5 -2
-5 12 0 14 2 19 5 13 2 -7 2 -19 0 -25z m-1410 -4 c-3 -3 -12 -4 -19 -1 -8 3
-5 6 6 6 11 1 17 -2 13 -5z m1061 -25 c-7 -5 -19 -9 -26 -9 -10 0 -10 3 0 14
7 7 19 11 26 8 11 -4 11 -6 0 -13z m-1102 -11 c4 -7 3 -10 -1 -5 -5 4 -17 0
-27 -10 -20 -18 -25 -4 -6 15 15 15 25 15 34 0z m1491 -55 c-2 -16 -4 -5 -4
22 0 28 2 40 4 28 2 -13 2 -35 0 -50z m-30 15 c-3 -7 -5 -2 -5 12 0 14 2 19 5
13 2 -7 2 -19 0 -25z m-1620 -4 c-3 -3 -12 -4 -19 -1 -8 3 -5 6 6 6 11 1 17
-2 13 -5z m1629 -60 c-7 -19 -26 -8 -25 14 0 14 2 13 9 -3 7 -17 9 -16 10 10
2 19 4 23 7 12 3 -10 2 -25 -1 -33z m-447 19 c-1 -10 -5 -29 -9 -43 -7 -21 -8
-19 -9 18 -1 23 4 42 9 42 6 0 10 -8 9 -17z m-1404 -33 c3 -5 1 -10 -4 -10 -6
0 -11 5 -11 10 0 6 2 10 4 10 3 0 8 -4 11 -10z m1685 -74 c0 -2 -7 -7 -16 -10
-8 -3 -12 -2 -9 4 6 10 25 14 25 6z m30 -9 c0 -2 -11 -14 -25 -27 -21 -19 -25
-21 -25 -7 0 9 7 17 15 17 8 0 15 5 15 10 0 6 5 10 10 10 6 0 10 -1 10 -3z
m-10 -52 c-7 -9 -15 -13 -17 -11 -7 7 7 26 19 26 6 0 6 -6 -2 -15z m-95 -28
c-11 -5 -23 -15 -27 -21 -4 -6 -6 -2 -6 9 1 14 10 20 27 22 23 1 24 0 6 -10z
m-1742 -37 c-18 -11 -45 -22 -60 -26 -21 -4 -16 0 17 19 54 29 89 35 43 7z
m154 -2 c-3 -8 -6 -5 -6 6 -1 11 2 17 5 13 3 -3 4 -12 1 -19z m1610 -3 c-9 -8
-23 -15 -32 -15 -9 0 -14 -4 -10 -9 3 -5 1 -12 -4 -15 -5 -4 -8 2 -6 11 2 10
4 21 4 25 1 4 7 5 14 2 8 -3 20 2 27 11 7 8 15 13 18 11 2 -3 -3 -12 -11 -21z
m-1561 -113 c-10 -10 -29 15 -21 28 6 9 10 8 17 -4 6 -10 7 -20 4 -24z m1454
34 c0 -2 -7 -9 -15 -16 -13 -11 -14 -10 -9 4 5 14 24 23 24 12z m-95 -36 c-3
-5 -16 -10 -28 -9 -20 1 -20 2 3 9 14 4 26 8 28 9 2 1 0 -3 -3 -9z m-1813 -22
c-7 -7 -12 -8 -12 -2 0 14 12 26 19 19 2 -3 -1 -11 -7 -17z m400 15 c-6 -2
-10 -9 -7 -14 4 -5 -1 -6 -10 -2 -13 5 -14 7 -3 14 7 5 18 8 23 8 6 0 4 -3 -3
-6z m-62 -33 c0 -5 -4 -10 -10 -10 -5 0 -10 5 -10 10 0 6 5 10 10 10 6 0 10
-4 10 -10z m-125 -39 c3 -5 2 -12 -3 -15 -5 -3 -9 1 -9 9 0 17 3 19 12 6z m40
-1 c3 -6 -1 -7 -9 -4 -18 7 -21 14 -7 14 6 0 13 -4 16 -10z m45 -5 c0 -2 -6
-5 -13 -8 -8 -3 -14 1 -14 8 0 7 6 11 14 8 7 -3 13 -6 13 -8z m-440 -19 c0 -2
-7 -7 -16 -10 -8 -3 -12 -2 -9 4 6 10 25 14 25 6z m102 -148 c-5 -5 -18 -8
-28 -5 -15 4 -14 5 4 6 15 1 21 5 16 13 -5 7 -3 8 5 3 8 -5 9 -11 3 -17z m508
-7 c-8 -5 -26 -11 -40 -15 -21 -5 -20 -3 5 9 32 15 60 20 35 6z m-530 -25 c0
-2 -7 -6 -15 -10 -8 -3 -15 -1 -15 4 0 6 7 10 15 10 8 0 15 -2 15 -4z m520 -6
c-22 -6 -23 -8 -8 -15 10 -4 15 -12 12 -17 -4 -7 -10 -4 -16 6 -5 9 -17 16
-26 17 -25 1 17 18 43 17 16 0 15 -2 -5 -8z m84 -16 c3 -9 4 -20 0 -25 -3 -5
2 -9 10 -9 21 0 66 -21 66 -32 0 -4 -16 -8 -36 -8 -30 0 -35 -3 -30 -17 4 -10
-3 -26 -21 -45 -31 -33 -41 -34 -60 -10 -14 16 -14 16 -9 0 3 -11 0 -18 -7
-18 -7 0 -20 -12 -30 -26 -15 -21 -16 -28 -6 -40 11 -13 10 -18 -4 -26 -10 -5
-15 -14 -11 -19 3 -5 2 -8 -3 -7 -10 3 -63 -36 -63 -47 0 -10 -43 -44 -57 -45
-6 0 -13 -10 -15 -22 -2 -19 -9 -23 -35 -23 -20 0 -33 -5 -33 -12 0 -7 5 -13
10 -13 6 0 2 -10 -10 -22 -20 -21 -20 -21 -35 -2 -15 20 -17 18 -19 -35 -1
-13 -6 -26 -13 -28 -13 -5 -73 53 -73 70 0 19 125 137 145 137 12 0 16 3 8 8
-8 5 -2 17 18 40 16 17 31 32 35 32 12 0 34 29 31 42 -2 7 -2 10 0 6 6 -11 33
-10 33 0 0 4 -6 14 -12 21 -11 10 -10 11 2 6 10 -3 31 8 54 30 21 19 43 35 49
35 6 0 8 3 4 6 -11 11 52 64 69 57 13 -5 15 -2 9 15 -4 14 -2 22 5 22 6 0 8 5
5 10 -3 6 0 10 8 10 8 0 18 -7 21 -16z m-687 -10 c-3 -3 -12 -4 -19 -1 -8 3
-5 6 6 6 11 1 17 -2 13 -5z m479 -23 c0 -11 -5 -17 -13 -14 -10 4 -11 9 -2 19
15 18 15 18 15 -5z m304 -13 c0 -6 -7 -5 -15 2 -8 7 -15 17 -15 22 0 6 7 5 15
-2 8 -7 15 -17 15 -22z m-375 -18 c-3 -5 -12 -10 -18 -10 -7 0 -6 4 3 10 19
12 23 12 15 0z m-530 -31 c11 -17 -1 -21 -15 -4 -8 9 -8 15 -2 15 6 0 14 -5
17 -11z m-50 -9 c16 -7 14 -8 -12 -7 -18 1 -33 5 -33 10 0 9 19 8 45 -3z
m-365 -34 c0 -2 -8 -10 -17 -17 -16 -13 -17 -12 -4 4 13 16 21 21 21 13z m880
0 c0 -2 -7 -7 -16 -10 -8 -3 -12 -2 -9 4 6 10 25 14 25 6z m-90 -66 c0 -5 -2
-10 -4 -10 -3 0 -8 5 -11 10 -3 6 -1 10 4 10 6 0 11 -4 11 -10z m-50 -29 c12
-13 12 -14 0 -9 -8 3 -24 10 -34 14 -12 4 -17 4 -13 -2 3 -6 -3 -10 -13 -11
-16 -1 -17 1 -7 12 15 17 49 15 67 -4z m-825 -1 c-3 -5 -12 -10 -18 -10 -7 0
-6 4 3 10 19 12 23 12 15 0z m875 0 c0 -5 -2 -10 -4 -10 -3 0 -8 5 -11 10 -3
6 -1 10 4 10 6 0 11 -4 11 -10z m-580 -14 c0 -3 -4 -8 -10 -11 -5 -3 -10 -1
-10 4 0 6 5 11 10 11 6 0 10 -2 10 -4z m427 -10 c0 -9 -6 -12 -16 -8 -14 5
-14 3 -2 -11 8 -10 9 -17 3 -17 -21 0 -25 23 -7 37 23 16 22 16 22 -1z m-480
-10 c0 -8 -6 -12 -15 -9 -11 5 -11 7 0 14 7 5 13 9 14 9 0 0 1 -6 1 -14z
m1343 -16 c0 -5 -7 -7 -15 -4 -8 4 -12 10 -9 15 6 11 24 2 24 -11z m-1378 -23
c-18 -17 -24 -19 -34 -9 -11 11 -9 12 6 6 15 -6 18 -4 14 7 -4 10 1 15 15 16
20 2 20 2 -1 -20z m486 7 c18 -8 32 -17 32 -19 0 -6 -33 6 -47 17 -14 11 -36
1 -27 -13 3 -5 2 -9 -3 -8 -20 3 -33 -2 -33 -14 0 -7 -10 -18 -22 -26 -22 -13
-22 -13 -9 5 11 14 71 72 77 74 0 0 15 -7 32 -16z m926 -13 c3 -5 -2 -15 -12
-22 -15 -13 -16 -12 -4 3 10 13 10 17 0 21 -9 4 -9 6 -1 6 6 1 14 -3 17 -8z
m-1044 -81 c0 -5 -2 -10 -4 -10 -3 0 -8 5 -11 10 -3 6 -1 10 4 10 6 0 11 -4
11 -10z m-103 -28 c-24 -25 -25 -28 -9 -40 13 -9 11 -9 -11 0 l-28 12 33 28
c42 36 49 36 15 0z m1011 13 c-2 -1 -12 -7 -24 -13 -15 -8 -21 -8 -21 1 0 7
11 13 24 13 14 1 23 1 21 -1z m-1024 -88 c-17 -10 -27 -4 -30 17 -1 10 3 11
21 2 20 -9 21 -12 9 -19z m-110 -20 c-12 -7 -19 -19 -17 -27 4 -13 3 -13 -6 0
-12 17 4 40 28 40 12 -1 11 -3 -5 -13z m916 8 c0 -7 -30 -13 -34 -7 -3 4 4 9
15 9 10 1 19 0 19 -2z m-1607 -19 c4 -10 1 -13 -9 -9 -15 6 -19 23 -5 23 5 0
11 -7 14 -14z m1562 4 c3 -5 1 -10 -4 -10 -6 0 -11 5 -11 10 0 6 2 10 4 10 3
0 8 -4 11 -10z m-1335 -20 c0 -5 -5 -10 -11 -10 -5 0 -7 5 -4 10 3 6 8 10 11
10 2 0 4 -4 4 -10z m487 4 c-3 -3 -12 -4 -19 -1 -8 3 -5 6 6 6 11 1 17 -2 13
-5z m-130 -48 c0 -8 -5 -14 -10 -13 -5 1 -12 -4 -14 -11 -3 -6 1 -10 9 -9 7 2
10 2 5 0 -4 -3 -4 -9 -1 -15 4 -5 -3 -5 -16 2 l-22 12 23 24 c27 28 26 28 26
10z m-682 -16 c-3 -5 -14 -10 -23 -10 -15 0 -15 2 -2 10 20 13 33 13 25 0z
m229 -31 c-8 -13 -24 -1 -24 18 0 13 3 13 15 3 8 -7 12 -16 9 -21z m1230 -15
c6 -14 -11 -30 -21 -20 -4 3 0 6 7 6 9 0 8 4 -4 13 -16 12 -16 14 -3 14 9 0
18 -6 21 -13z m-1524 -9 c0 -8 -4 -15 -10 -15 -5 0 -7 7 -4 15 4 8 8 15 10 15
2 0 4 -7 4 -15z m214 -6 c-3 -5 -10 -7 -15 -3 -5 3 -7 10 -3 15 3 5 10 7 15 3
5 -3 7 -10 3 -15z m51 9 c5 4 5 1 1 -6 -6 -10 -11 -10 -22 -1 -8 6 -14 14 -14
16 0 3 6 0 13 -6 8 -6 18 -7 22 -3z m1220 -18 c1 -10 -2 -17 -6 -14 -4 2 -7
13 -6 24 2 23 10 17 12 -10z m-821 -9 c-1 -18 -6 -25 -18 -23 -9 2 -16 -2 -16
-8 0 -7 -6 -8 -19 -1 -14 8 -23 5 -41 -14 -12 -13 -19 -28 -16 -34 10 -15 -12
-23 -31 -11 -15 9 -14 10 7 4 20 -6 23 -4 14 7 -8 11 -2 22 30 49 22 19 36 29
32 23 -4 -8 -1 -13 9 -13 9 0 13 5 10 10 -8 13 10 37 28 37 7 0 12 -11 11 -26z
m-704 -1 c0 -5 -5 -10 -11 -10 -5 0 -7 5 -4 10 3 6 8 10 11 10 2 0 4 -4 4 -10z
m50 -20 c0 -5 -4 -10 -10 -10 -5 0 -10 5 -10 10 0 6 5 10 10 10 6 0 10 -4 10
-10z m573 -75 c-3 -9 -8 -14 -10 -11 -3 3 -2 9 2 15 9 16 15 13 8 -4z m-83 1
c0 -2 -8 -10 -17 -17 -16 -13 -17 -12 -4 4 13 16 21 21 21 13z m35 -24 c-3 -3
-11 0 -18 7 -9 10 -8 11 6 5 10 -3 15 -9 12 -12z m-431 -14 c-3 -5 -9 -6 -14
-3 -5 3 -11 -4 -15 -15 -3 -11 -11 -20 -17 -20 -6 0 -8 3 -5 7 4 3 1 13 -6 22
-11 14 -10 14 6 2 15 -12 17 -11 17 2 0 9 8 15 19 14 11 0 17 -5 15 -9z m401
2 c3 -5 1 -10 -4 -10 -6 0 -11 5 -11 10 0 6 2 10 4 10 3 0 8 -4 11 -10z m765
0 c-10 -6 -8 -9 6 -13 13 -3 14 -5 3 -6 -8 0 -23 5 -32 12 -16 11 -15 12 9 14
17 1 22 -2 14 -7z m-806 -17 c-6 -2 -20 -11 -30 -19 -18 -14 -18 -15 6 -9 21
5 22 4 7 -5 -32 -21 -42 2 -12 26 16 13 32 20 35 17 3 -3 0 -8 -6 -10z m40
-11 c3 -5 -1 -9 -9 -9 -8 0 -15 4 -15 9 0 4 4 8 9 8 6 0 12 -4 15 -8z m-489
-59 c-33 -33 -46 -40 -44 -25 3 19 -2 26 -11 12 -7 -12 -9 -10 -7 7 0 12 6 19
12 15 29 -18 78 8 68 36 -4 15 -3 15 6 2 8 -12 3 -22 -24 -47z m1245 27 c-14
-11 -32 -19 -40 -19 -9 0 -6 4 6 9 12 5 25 13 29 19 3 6 12 11 18 11 7 0 1 -9
-13 -20z m-780 0 c-8 -5 -19 -10 -25 -10 -5 0 -3 5 5 10 8 5 20 10 25 10 6 0
3 -5 -5 -10z m-80 -19 c0 -13 -29 -35 -37 -28 -3 4 2 9 11 13 9 3 13 10 10 15
-3 5 0 9 5 9 6 0 11 -4 11 -9z m25 -31 c3 -5 1 -10 -4 -10 -6 0 -11 5 -11 10
0 6 2 10 4 10 3 0 8 -4 11 -10z m-461 -19 c3 -4 -5 -18 -18 -30 -20 -19 -25
-20 -35 -7 -10 12 -9 14 6 11 21 -3 45 13 37 26 -3 5 -3 9 0 9 3 0 7 -4 10 -9z
m370 -9 c2 -4 -4 -8 -14 -8 -10 0 -16 4 -14 8 3 4 9 8 14 8 5 0 11 -4 14 -8z
m528 -19 c2 -20 9 -29 26 -31 22 -3 32 -32 11 -32 -5 0 -8 -4 -4 -9 3 -5 1
-13 -5 -16 -6 -4 -9 -1 -8 6 2 6 -3 14 -11 17 -10 3 -12 0 -7 -13 7 -20 -11
-48 -27 -38 -5 3 -7 1 -4 -4 4 -6 0 -16 -8 -23 -13 -10 -19 -9 -35 5 -12 11
-20 13 -20 6 0 -6 -11 -24 -25 -39 -28 -30 -33 -47 -11 -39 10 4 12 0 8 -15
-2 -11 -12 -22 -20 -26 -29 -10 -54 -43 -47 -60 5 -13 3 -14 -5 -6 -9 9 -23
-1 -57 -37 -34 -36 -53 -49 -74 -49 -24 0 -28 -4 -26 -27 2 -25 -1 -28 -25
-26 -27 2 -32 -5 -29 -39 5 -42 -59 -21 -81 27 -9 20 -8 29 7 45 10 11 24 20
32 20 7 0 13 5 13 12 0 19 62 78 82 78 10 0 18 7 18 18 1 22 37 65 48 58 5 -3
15 6 22 19 7 14 19 25 27 25 7 0 13 5 13 11 0 19 73 89 95 90 11 0 14 3 8 6
-8 3 -3 15 17 36 17 18 30 39 31 47 0 8 5 4 11 -10 l11 -25 9 33 c11 39 35 42
40 5z m-1142 13 c0 -3 -4 -8 -10 -11 -5 -3 -10 -1 -10 4 0 6 5 11 10 11 6 0
10 -2 10 -4z m167 -13 c-4 -3 -3 -11 2 -17 6 -7 4 -18 -4 -29 -11 -16 -12 -14
-10 15 4 41 4 38 12 38 3 0 3 -3 0 -7z m1008 -3 c3 -5 1 -10 -4 -10 -6 0 -11
5 -11 10 0 6 2 10 4 10 3 0 8 -4 11 -10z m-1076 -86 c-13 -16 -2 -37 14 -27 7
4 6 -1 -2 -11 -13 -15 -16 -15 -29 -2 -12 12 -13 18 -4 29 7 8 10 16 7 19 -3
2 2 5 10 5 11 0 12 -4 4 -13z m43 2 c7 4 8 2 4 -5 -9 -13 -26 -5 -25 12 0 9 2
8 6 -1 2 -6 10 -9 15 -6z m1058 -17 c-9 -15 -8 -24 1 -35 6 -8 9 -17 5 -21 -3
-3 -6 -1 -6 6 0 8 -7 6 -17 -6 -10 -10 -14 -13 -10 -7 5 7 7 18 6 26 -3 13 18
58 27 58 2 0 0 -9 -6 -21z m-736 -44 c-7 -18 -30 -20 -40 -3 -5 8 -2 9 9 5 9
-3 19 -2 22 3 9 15 15 12 9 -5z m-458 -46 c-9 -13 -16 -18 -16 -12 0 7 5 15
10 18 6 3 10 11 10 16 0 6 -5 7 -12 3 -7 -5 -8 -3 -3 5 5 9 11 9 17 3 7 -7 5
-18 -6 -33z m1124 31 c-12 -8 -12 -10 -1 -10 8 0 12 -3 8 -6 -9 -9 -28 6 -22
17 4 5 12 9 18 9 7 0 6 -4 -3 -10z m-703 -26 c-3 -3 -12 -4 -19 -1 -8 3 -5 6
6 6 11 1 17 -2 13 -5z m-57 -23 c-14 -26 -13 -34 4 -28 11 5 12 0 3 -23 -13
-33 -27 -31 -20 3 4 21 4 22 -11 3 -23 -28 -20 -9 5 30 22 36 37 47 19 15z
m774 2 c-9 -7 -21 -10 -26 -7 -14 9 -1 20 22 20 20 0 20 -1 4 -13z m-1120 -12
c3 -5 -1 -14 -8 -20 -10 -9 -16 -9 -21 -1 -4 6 -1 9 7 8 7 -2 12 3 11 10 -3
14 3 16 11 3z m-74 -41 c-6 -12 -14 -19 -17 -17 -2 3 1 15 7 27 6 12 14 19 17
17 2 -3 -1 -15 -7 -27z m1150 20 c0 -4 -10 -15 -22 -26 -14 -12 -18 -13 -10
-3 12 16 7 29 -10 29 -5 0 -7 -4 -3 -9 3 -5 1 -12 -4 -15 -7 -5 -8 20 -2 30 3
5 51 0 51 -6z m-1130 -40 c0 -5 -5 -10 -11 -10 -5 0 -7 5 -4 10 3 6 8 10 11
10 2 0 4 -4 4 -10z m335 -10 c-8 -13 8 -13 22 1 7 7 12 6 16 -5 4 -11 -1 -14
-20 -13 -25 2 -47 27 -23 27 6 0 8 -4 5 -10z m679 -39 c3 -4 -4 -17 -17 -27
-22 -19 -22 -19 -4 2 9 11 14 24 10 27 -3 4 -4 7 0 7 3 0 8 -4 11 -9z m-698
-20 c-4 -6 -12 -8 -19 -5 -7 2 -22 -4 -32 -16 -10 -11 -15 -20 -11 -20 4 0 0
-10 -8 -21 -16 -23 -11 -53 8 -42 6 3 8 2 3 -2 -4 -5 -23 -10 -42 -11 -29 -1
-33 1 -24 12 9 11 15 11 25 3 10 -8 14 -8 14 -1 0 6 -5 14 -11 17 -6 5 -3 13
10 22 12 8 19 18 16 22 -7 12 42 54 54 46 6 -3 11 -1 11 6 0 7 3 10 6 6 3 -3
3 -10 0 -16z m-570 -27 c-4 -9 -9 -15 -11 -12 -3 3 -3 13 1 22 4 9 9 15 11 12
3 -3 3 -13 -1 -22z m568 -3 c-8 -8 -43 -8 -38 0 2 4 13 7 24 6 10 -1 17 -3 14
-6z m622 -20 c20 17 17 -5 -3 -24 -17 -14 -18 -14 -19 11 -1 15 1 21 3 14 4
-10 8 -10 19 -1z m-1046 -42 c0 -6 -4 -7 -10 -4 -5 3 -10 11 -10 16 0 6 5 7
10 4 6 -3 10 -11 10 -16z m-92 -54 c-3 -3 -9 2 -12 12 -6 14 -5 15 5 6 7 -7
10 -15 7 -18z m43 1 c1 5 1 12 1 15 -1 3 5 6 13 6 11 0 10 -5 -2 -24 -9 -13
-17 -22 -18 -21 -1 2 -8 14 -14 28 -11 24 -11 24 3 6 9 -11 17 -16 17 -10z
m1004 5 c3 -5 2 -12 -3 -15 -5 -3 -9 1 -9 9 0 17 3 19 12 6z m-38 -28 c-9 -9
-20 -14 -24 -10 -3 4 2 14 13 21 25 19 33 10 11 -11z m-1117 2 c0 -8 -4 -15
-10 -15 -5 0 -7 7 -4 15 4 8 8 15 10 15 2 0 4 -7 4 -15z m-47 -20 c-3 -9 -8
-14 -10 -11 -3 3 -2 9 2 15 9 16 15 13 8 -4z m155 -11 c0 -17 -3 -22 -8 -13
-5 6 -6 18 -3 26 8 19 11 16 11 -13z m972 2 c0 -2 -7 -9 -15 -16 -13 -11 -14
-10 -9 4 5 14 24 23 24 12z m20 -10 c0 -2 -8 -10 -17 -17 -16 -13 -17 -12 -4
4 13 16 21 21 21 13z m-697 -73 c-3 -7 -6 -13 -8 -13 -2 0 -5 6 -8 13 -3 8 1
14 8 14 7 0 11 -6 8 -14z m-493 -48 c0 -5 -5 -3 -10 5 -5 8 -10 20 -10 25 0 6
5 3 10 -5 5 -8 10 -19 10 -25z m118 15 c-7 -10 -14 -17 -17 -15 -4 4 18 35 25
35 2 0 -1 -9 -8 -20z m375 -11 c-8 -8 -13 -7 -18 2 -5 8 -4 10 3 5 7 -4 12 -2
12 5 0 7 3 9 7 6 4 -4 2 -12 -4 -18z m-45 -9 c-7 -10 -14 -17 -17 -15 -4 4 18
35 25 35 2 0 -1 -9 -8 -20z m-487 -17 c-12 -20 -14 -14 -5 12 4 9 9 14 11 11
3 -2 0 -13 -6 -23z m506 -5 c-3 -8 -6 -5 -6 6 -1 11 2 17 5 13 3 -3 4 -12 1
-19z m-387 -12 c0 -3 -4 -8 -10 -11 -5 -3 -10 -1 -10 4 0 6 5 11 10 11 6 0 10
-2 10 -4z m336 -40 c0 -13 -5 -24 -10 -23 -4 1 -16 -11 -25 -27 -9 -16 -23
-32 -31 -34 -11 -4 -10 0 3 15 10 11 19 30 22 42 5 30 15 42 26 36 5 -4 9 -1
9 4 0 6 2 11 4 11 2 0 3 -11 2 -24z m589 3 c-4 -5 -12 -9 -18 -8 -9 0 -8 2 1
6 6 2 9 10 6 15 -4 7 -2 8 5 4 6 -4 9 -12 6 -17z m-51 -60 c-9 -10 -21 -16
-25 -13 -5 3 -9 1 -9 -4 0 -6 -9 -8 -20 -5 -19 5 -19 6 -3 18 10 7 21 11 25 9
4 -2 9 -1 12 4 3 5 12 9 21 9 13 0 13 -2 -1 -18z m-890 -6 c4 -10 4 -14 0 -10
-4 4 -16 -5 -27 -20 -20 -30 -20 -24 2 20 17 32 17 32 25 10z m326 -28 c-7 -8
-17 -15 -23 -15 -6 0 -2 7 9 15 25 19 30 19 14 0z m442 -61 c-9 -16 -10 -14
-9 8 1 15 6 23 11 18 4 -4 4 -16 -2 -26z m-510 -6 c-7 -7 -12 -8 -12 -2 0 6 3
14 7 17 3 4 9 5 12 2 2 -3 -1 -11 -7 -17z m-461 -41 c-10 -9 -11 -8 -5 6 3 10
9 15 12 12 3 -3 0 -11 -7 -18z m462 -11 c-3 -4 -9 -2 -14 5 -13 22 -11 31 5
17 8 -7 12 -17 9 -22z m462 4 c3 -6 -1 -7 -9 -4 -16 6 -23 -10 -8 -19 4 -2 1
-2 -5 -1 -7 2 -13 -2 -13 -8 0 -6 -3 -9 -6 -6 -7 8 14 48 26 48 5 0 12 -4 15
-10z m-790 -49 c-9 -29 -23 -17 -17 14 3 17 8 23 14 17 6 -6 7 -20 3 -31z
m799 7 c-18 -21 -60 -36 -48 -17 3 5 12 9 20 9 7 0 19 9 26 20 7 10 14 17 16
15 2 -2 -4 -14 -14 -27z m-837 -25 c1 -22 -1 -24 -8 -10 -6 9 -7 22 -4 27 9
14 10 13 12 -17z m353 13 c0 -2 -7 -7 -16 -10 -8 -3 -12 -2 -9 4 6 10 25 14
25 6z m-339 -49 c-10 -9 -11 -8 -5 6 3 10 9 15 12 12 3 -3 0 -11 -7 -18z
m-124 -69 c-3 -8 -6 -5 -6 6 -1 11 2 17 5 13 3 -3 4 -12 1 -19z m867 10 c-3
-4 -11 -5 -19 -1 -21 7 -19 12 4 10 11 0 18 -5 15 -9z m-884 -23 c0 -8 -2 -15
-4 -15 -2 0 -6 7 -10 15 -3 8 -1 15 4 15 6 0 10 -7 10 -15z m409 -35 c0 -10
-3 -8 -9 5 -12 27 -12 43 0 25 5 -8 9 -22 9 -30z m451 32 c0 -5 -7 -17 -15
-28 -14 -18 -14 -17 -4 9 12 27 19 34 19 19z m-486 -28 c3 -8 2 -12 -4 -9 -6
3 -10 10 -10 16 0 14 7 11 14 -7z m-373 -17 c-10 -9 -11 -8 -5 6 3 10 9 15 12
12 3 -3 0 -11 -7 -18z m106 -19 c-3 -8 -6 -5 -6 6 -1 11 2 17 5 13 3 -3 4 -12
1 -19z m706 -22 c-3 -4 -9 -2 -14 5 -13 22 -11 31 5 17 8 -7 12 -17 9 -22z
m-833 -27 c0 -5 -4 -9 -10 -9 -5 0 -10 7 -10 16 0 8 5 12 10 9 6 -3 10 -10 10
-16z m119 -24 c0 -5 -4 -3 -9 5 -5 8 -9 22 -9 30 0 16 17 -16 18 -35z m684 19
c-7 -3 -9 -13 -6 -22 4 -14 3 -14 -5 -2 -12 16 -7 30 11 29 9 0 9 -2 0 -5z
m-720 -79 c5 -28 4 -34 -3 -20 -8 19 -14 73 -6 64 2 -2 6 -22 9 -44z m702 35
c3 -5 1 -10 -4 -10 -6 0 -11 5 -11 10 0 6 2 10 4 10 3 0 8 -4 11 -10z m-728
-32 c-3 -8 -6 -5 -6 6 -1 11 2 17 5 13 3 -3 4 -12 1 -19z m53 -99 c0 -49 -3
-88 -7 -86 -8 5 -5 177 3 177 2 0 4 -41 4 -91z m-53 59 c-3 -8 -6 -5 -6 6 -1
11 2 17 5 13 3 -3 4 -12 1 -19z m698 12 c3 -5 1 -10 -4 -10 -6 0 -11 5 -11 10
0 6 2 10 4 10 3 0 8 -4 11 -10z m-648 -232 c-2 -13 -4 -5 -4 17 -1 22 1 32 4
23 2 -10 2 -28 0 -40z m-33 16 c3 -8 2 -12 -4 -9 -6 3 -10 10 -10 16 0 14 7
11 14 -7z m-41 -32 c-3 -12 -9 -22 -14 -22 -5 0 -3 11 3 25 13 30 20 28 11 -3z
m615 -53 c-3 -8 -7 -3 -11 10 -4 17 -3 21 5 13 5 -5 8 -16 6 -23z m-18 -14 c0
-5 -5 -3 -10 5 -5 8 -10 20 -10 25 0 6 5 3 10 -5 5 -8 10 -19 10 -25z m-520
-1 c0 -8 -5 -12 -10 -9 -6 4 -8 11 -5 16 9 14 15 11 15 -7z m247 -76 c-3 -8
-6 -5 -6 6 -1 11 2 17 5 13 3 -3 4 -12 1 -19z m270 -30 c-3 -7 -5 -2 -5 12 0
14 2 19 5 13 2 -7 2 -19 0 -25z m-20 -20 c-3 -7 -5 -2 -5 12 0 14 2 19 5 13 2
-7 2 -19 0 -25z m-20 -10 c-3 -8 -6 -5 -6 6 -1 11 2 17 5 13 3 -3 4 -12 1 -19z
m-460 -10 c-3 -8 -6 -5 -6 6 -1 11 2 17 5 13 3 -3 4 -12 1 -19z m13 -33 c0 -8
-4 -15 -10 -15 -5 0 -7 7 -4 15 4 8 8 15 10 15 2 0 4 -7 4 -15z m7 -37 c-2 -7
2 -21 11 -30 24 -29 8 -21 -19 9 -13 14 -18 23 -11 19 6 -4 12 -2 12 3 0 6 3
11 6 11 3 0 4 -6 1 -12z m263 -28 c0 -5 -4 -10 -10 -10 -5 0 -10 5 -10 10 0 6
5 10 10 10 6 0 10 -4 10 -10z m7 -42 c-3 -8 -6 -5 -6 6 -1 11 2 17 5 13 3 -3
4 -12 1 -19z m-182 -19 c3 -13 9 -25 15 -27 5 -2 10 -8 10 -13 0 -4 -7 -6 -15
-3 -8 4 -15 12 -15 20 0 8 -5 13 -11 12 -6 -2 -13 3 -14 10 -2 7 -1 8 2 2 8
-17 23 -1 16 18 -3 9 -3 14 1 11 4 -4 9 -17 11 -30z m382 -21 c-3 -8 -6 -5 -6
6 -1 11 2 17 5 13 3 -3 4 -12 1 -19z m-336 -55 c13 -16 12 -17 -3 -4 -10 7
-18 15 -18 17 0 8 8 3 21 -13z m247 -28 c-3 -3 -9 2 -12 12 -6 14 -5 15 5 6 7
-7 10 -15 7 -18z m99 -17 c-3 -8 -6 -5 -6 6 -1 11 2 17 5 13 3 -3 4 -12 1 -19z
m-110 -50 c2 -18 0 -20 -7 -8 -12 18 -13 30 -2 30 4 0 9 -10 9 -22z m103 -59
c8 -14 6 -16 -10 -12 -11 3 -17 9 -14 15 3 5 0 17 -8 26 -12 15 -11 16 5 3 10
-8 22 -22 27 -32z m27 -1 c-3 -7 -5 -2 -5 12 0 14 2 19 5 13 2 -7 2 -19 0 -25z
m-11 -64 c-4 -9 -9 -15 -11 -12 -3 3 -3 13 1 22 4 9 9 15 11 12 3 -3 3 -13 -1
-22z m-26 -5 c0 -6 -4 -7 -10 -4 -5 3 -10 11 -10 16 0 6 5 7 10 4 6 -3 10 -11
10 -16z m57 -8 c-1 -16 -6 -29 -12 -28 -5 1 -9 -4 -7 -10 3 -18 -2 -16 -24 9
-15 19 -16 20 -1 9 15 -12 21 -9 18 12 0 4 4 7 9 7 6 0 10 7 10 15 0 8 2 15 5
15 2 0 3 -13 2 -29z"/>
<path d="M5880 4560 c0 -5 5 -10 10 -10 6 0 10 5 10 10 0 6 -4 10 -10 10 -5 0
-10 -4 -10 -10z"/>
<path d="M5760 4490 c0 -5 5 -10 11 -10 5 0 7 5 4 10 -3 6 -8 10 -11 10 -2 0
-4 -4 -4 -10z"/>
<path d="M5007 4253 c-11 -11 -8 -21 9 -27 13 -5 14 -4 6 7 -7 8 -9 17 -5 20
3 4 4 7 1 7 -2 0 -8 -3 -11 -7z"/>
<path d="M5075 3800 c-3 -6 1 -7 9 -4 18 7 21 14 7 14 -6 0 -13 -4 -16 -10z"/>
<path d="M4960 3690 c0 -5 5 -10 11 -10 5 0 7 5 4 10 -3 6 -8 10 -11 10 -2 0
-4 -4 -4 -10z"/>
<path d="M4928 3603 c7 -3 16 -2 19 1 4 3 -2 6 -13 5 -11 0 -14 -3 -6 -6z"/>
<path d="M4796 3523 c-6 -14 -5 -15 5 -6 7 7 10 15 7 18 -3 3 -9 -2 -12 -12z"/>
<path d="M3021 8463 c-19 -4 -21 -7 -10 -15 10 -7 8 -8 -9 -3 -15 4 -44 -4
-87 -24 -36 -16 -65 -31 -65 -33 0 -2 12 -5 27 -6 14 -1 29 -5 32 -8 3 -3 -13
-4 -36 -1 -37 3 -46 0 -79 -32 -53 -51 -93 -117 -87 -144 3 -16 2 -18 -5 -9
-7 11 -11 8 -15 -9 -8 -30 7 -46 28 -29 8 7 15 18 15 25 0 7 7 16 17 19 15 6
14 8 -2 20 -20 14 -15 46 7 46 9 0 9 -3 0 -12 -19 -19 -14 -28 14 -28 17 0 23
4 18 13 -5 7 0 6 11 -3 17 -13 18 -13 13 0 -7 20 17 54 31 45 6 -3 11 -17 11
-31 0 -17 6 -24 19 -24 11 0 26 -3 34 -6 25 -9 -10 -43 -37 -36 -18 5 -19 3
-9 -10 10 -12 6 -20 -23 -49 -33 -31 -36 -33 -48 -16 -16 20 -26 22 -26 4 0
-8 -11 -24 -24 -36 -15 -14 -22 -30 -19 -42 3 -11 -1 -21 -11 -25 -15 -6 -42
-81 -33 -90 2 -3 12 10 20 28 9 18 17 27 17 20 0 -7 -7 -27 -16 -44 -13 -25
-13 -35 -4 -59 7 -16 16 -26 21 -23 5 3 6 -1 3 -9 -7 -19 73 -125 122 -161
l39 -29 -25 28 c-14 16 -18 24 -9 17 9 -6 20 -8 24 -4 5 4 6 2 2 -3 -8 -15 13
-39 49 -58 24 -12 34 -13 43 -4 10 9 11 8 6 -5 -9 -22 70 -39 168 -36 l72 2
-75 6 -75 7 87 -1 c47 -1 84 3 81 8 -3 4 3 5 14 2 25 -8 121 40 178 89 36 30
43 41 33 52 -8 11 -8 17 1 26 10 9 11 8 5 -6 -10 -26 17 -17 38 13 10 14 18
33 18 43 0 10 4 16 9 13 13 -8 42 90 48 164 5 61 -14 201 -24 173 -3 -7 -9
-13 -14 -13 -6 0 -5 8 1 20 9 17 6 30 -15 69 -32 58 -130 158 -139 142 -4 -6
-3 -11 2 -11 6 0 8 -8 6 -17 -6 -22 52 -59 59 -40 3 7 4 2 4 -10 -1 -21 -2
-21 -30 -5 -40 24 -48 36 -49 72 -1 26 -8 35 -39 51 -44 22 -66 25 -29 4 14
-8 20 -14 14 -15 -6 0 -23 9 -38 21 -15 11 -33 18 -42 15 -8 -3 -13 -2 -10 3
10 16 -136 26 -203 14z m72 -10 c-7 -2 -19 -2 -25 0 -7 3 -2 5 12 5 14 0 19
-2 13 -5z m47 3 c0 -2 -7 -7 -16 -10 -8 -3 -12 -2 -9 4 6 10 25 14 25 6z
m-200 -46 c-8 -5 -19 -10 -25 -10 -5 0 -3 5 5 10 8 5 20 10 25 10 6 0 3 -5 -5
-10z m385 -20 c3 0 3 5 0 10 -3 6 -2 10 4 10 5 0 13 -4 16 -10 3 -5 0 -10 -7
-10 -10 0 -9 -3 2 -11 12 -9 11 -9 -5 -3 -11 4 -27 7 -36 8 -9 0 -16 6 -16 13
0 8 6 9 18 2 10 -5 20 -9 24 -9z m-370 0 c-3 -5 -14 -10 -23 -9 -14 0 -13 2 3
9 27 11 27 11 20 0z m468 -50 c20 -24 6 -27 -17 -4 -18 17 -20 24 -8 24 4 0
15 -9 25 -20z m-623 -14 c0 -2 -8 -10 -17 -17 -16 -13 -17 -12 -4 4 13 16 21
21 21 13z m-11 -43 c-7 -10 -14 -19 -15 -21 -1 -2 -4 4 -8 13 -3 9 -2 13 3 10
5 -3 12 -1 16 5 3 5 9 10 12 10 3 0 -1 -8 -8 -17z m685 2 c3 -8 1 -15 -4 -15
-6 0 -10 7 -10 15 0 8 2 15 4 15 2 0 6 -7 10 -15z m18 -65 c-22 -26 -24 -25
-10 5 6 13 15 22 19 19 5 -2 1 -14 -9 -24z m-41 -13 c-10 -9 -11 -8 -5 6 3 10
9 15 12 12 3 -3 0 -11 -7 -18z m106 -149 c-3 -7 -5 -2 -5 12 0 14 2 19 5 13 2
-7 2 -19 0 -25z m-4 -99 c-5 -5 -6 11 -3 34 4 41 5 41 8 8 2 -18 0 -37 -5 -42z
m-843 -96 c-11 -17 -11 -17 -6 0 3 10 6 24 7 30 0 9 2 9 5 0 3 -7 0 -20 -6
-30z m45 -80 c6 -17 7 -17 16 0 11 19 29 23 29 6 0 -5 -4 -7 -10 -4 -5 3 -10
2 -10 -4 0 -5 5 -13 10 -16 6 -4 10 -12 9 -18 -3 -24 1 -38 9 -33 5 3 9 -2 9
-10 0 -24 -30 10 -33 38 -4 34 -4 34 -12 22 -5 -8 -13 -4 -25 12 -10 13 -14
24 -9 24 6 0 13 -8 17 -17z m737 10 c-6 -2 -10 -9 -7 -13 3 -5 0 -12 -6 -16
-8 -4 -9 -3 -5 4 4 7 2 12 -4 12 -6 0 -8 5 -5 10 3 6 14 10 23 9 11 0 12 -2 4
-6z m-617 -85 c5 4 5 1 1 -6 -6 -10 -11 -10 -22 -1 -8 6 -14 14 -14 16 0 3 6
0 13 -6 8 -6 18 -7 22 -3z m538 5 c-7 -2 -13 -10 -13 -17 0 -7 -8 -20 -18 -29
-15 -14 -19 -15 -19 -2 0 8 4 12 9 9 4 -3 12 6 18 20 5 14 15 26 22 25 10 0
10 -2 1 -6z m-477 -89 c18 -14 18 -14 -6 -3 -31 14 -36 19 -24 19 6 0 19 -7
30 -16z m294 6 c0 -5 -2 -10 -4 -10 -3 0 -8 5 -11 10 -3 6 -1 10 4 10 6 0 11
-4 11 -10z m85 0 c-3 -5 -12 -10 -18 -10 -7 0 -6 4 3 10 19 12 23 12 15 0z
m-305 -20 c-8 -5 -19 -10 -25 -10 -5 0 -3 5 5 10 8 5 20 10 25 10 6 0 3 -5 -5
-10z m123 -7 c-7 -2 -19 -2 -25 0 -7 3 -2 5 12 5 14 0 19 -2 13 -5z"/>
<path d="M2670 8124 c0 -8 5 -12 10 -9 6 4 8 11 5 16 -9 14 -15 11 -15 -7z"/>
<path d="M2660 8006 c0 -31 6 -34 13 -6 3 11 1 23 -4 26 -5 3 -9 -6 -9 -20z"/>
<path d="M5700 7839 c-624 -50 -1227 -260 -1761 -614 -715 -474 -1236 -1160
-1498 -1969 -276 -852 -232 -1770 125 -2611 358 -842 1071 -1558 1924 -1928
585 -254 1240 -353 1870 -281 612 70 1179 277 1695 620 521 347 975 854 1271
1419 122 235 253 567 269 686 6 38 -1 29 -54 -78 -55 -111 -111 -193 -131
-193 -5 0 -51 -26 -102 -57 -184 -112 -350 -196 -468 -236 -25 -9 -76 -27
-115 -42 -128 -47 -377 -105 -535 -125 -174 -22 -444 -32 -539 -21 l-62 8
-157 -186 c-153 -180 -431 -468 -477 -494 -13 -6 -61 -44 -107 -83 -45 -39
-105 -87 -133 -108 -27 -20 -57 -43 -65 -49 -45 -35 -242 -161 -360 -230 -157
-92 -472 -249 -505 -251 -13 0 -22 -3 -20 -6 2 -3 -31 -19 -73 -34 -71 -26
-94 -35 -177 -70 -82 -35 -129 -40 -221 -23 -126 23 -334 79 -328 89 3 4 -2 5
-10 2 -9 -3 -23 -3 -33 0 -14 6 -14 8 3 22 15 12 13 12 -11 -1 -30 -16 -33
-16 -160 30 -242 87 -549 246 -785 406 -179 121 -272 199 -450 378 -331 332
-514 632 -587 963 -26 118 -26 493 0 623 56 280 150 519 315 803 55 95 59 106
51 140 -5 20 -9 102 -9 182 0 399 106 916 256 1247 101 223 187 382 283 524
273 402 622 732 1021 966 105 62 287 154 360 183 92 37 273 102 305 110 17 4
64 17 105 28 165 44 381 76 594 87 54 2 101 7 104 10 3 3 -3 12 -14 20 -19 14
-18 14 5 37 l23 23 -7 -23 c-6 -22 -5 -23 17 -17 19 6 21 5 11 -6 -30 -31 -6
-40 117 -45 117 -4 275 -17 348 -29 l32 -6 0 69 c0 81 19 70 -174 102 -71 12
-140 20 -153 17 -13 -2 -26 0 -29 4 -10 17 -82 10 -94 -8 -10 -16 -10 -16 -5
3 5 20 0 21 -77 27 -111 9 -487 6 -618 -4z m754 -34 c-4 -10 0 -15 11 -15 9 0
13 -4 10 -10 -3 -5 -17 -10 -29 -10 -28 0 -53 -25 -36 -35 8 -5 8 -11 2 -17
-7 -7 -21 -1 -42 19 l-31 29 22 19 c22 20 22 20 17 -2 -4 -13 -2 -23 5 -23 15
0 47 31 47 47 0 7 7 13 15 13 9 0 12 -6 9 -15z m768 -5867 c2 -16 12 -25 33
-29 30 -7 27 -11 -10 -13 -15 -1 -19 -7 -18 -23 4 -31 -17 -29 -49 6 -24 25
-26 30 -12 42 12 10 15 10 12 -1 -2 -7 3 -15 10 -17 9 -4 13 2 12 18 -3 33 -1
39 9 39 5 0 11 -10 13 -22z m-57 -96 c-4 -4 -10 -1 -12 6 -3 6 -11 12 -19 12
-15 0 -19 12 -7 23 3 4 15 -2 26 -14 10 -11 16 -23 12 -27z m-37 -16 c2 -10
-8 -30 -22 -45 -15 -15 -23 -30 -19 -34 3 -4 -5 -7 -20 -7 -14 0 -30 8 -36 18
-8 13 -3 25 26 53 37 39 66 44 71 15z m72 -6 c0 -5 -5 -10 -11 -10 -5 0 -7 5
-4 10 3 6 8 10 11 10 2 0 4 -4 4 -10z m-185 -70 c3 -5 -1 -10 -9 -10 -9 0 -16
5 -16 10 0 6 4 10 9 10 6 0 13 -4 16 -10z"/>
<path d="M7067 1797 c-11 -13 -13 -23 -7 -25 12 -4 50 26 50 40 0 16 -25 8
-43 -15z"/>
<path d="M7526 7502 c-2 -4 3 -8 12 -8 9 -1 26 -4 37 -8 13 -5 11 -2 -5 8 -29
18 -37 19 -44 8z"/>
<path d="M7644 7456 c11 -9 24 -16 30 -16 12 0 7 5 -24 19 -24 11 -24 11 -6
-3z"/>
<path d="M7531 7444 c0 -11 3 -14 6 -6 3 7 2 16 -1 19 -3 4 -6 -2 -5 -13z"/>
<path d="M7717 7419 c7 -7 15 -10 18 -7 3 3 -2 9 -12 12 -14 6 -15 5 -6 -5z"/>
<path d="M7750 7405 c0 -7 61 -37 66 -33 2 3 -12 12 -31 21 -19 9 -35 15 -35
12z"/>
<path d="M7944 7296 c11 -9 24 -16 30 -16 12 0 7 5 -24 19 -24 11 -24 11 -6
-3z"/>
<path d="M7996 7262 c-3 -5 1 -9 9 -9 8 0 12 4 9 9 -3 4 -7 8 -9 8 -2 0 -6 -4
-9 -8z"/>
<path d="M8070 7216 c0 -2 7 -7 16 -10 8 -3 12 -2 9 4 -6 10 -25 14 -25 6z"/>
<path d="M8110 7196 c0 -2 8 -10 18 -17 15 -13 16 -12 3 4 -13 16 -21 21 -21
13z"/>
<path d="M8150 7166 c0 -2 8 -10 18 -17 15 -13 16 -12 3 4 -13 16 -21 21 -21
13z"/>
<path d="M8231 7097 c2 -1 13 -9 24 -17 19 -14 19 -14 6 3 -7 9 -18 17 -24 17
-6 0 -8 -1 -6 -3z"/>
<path d="M2115 6750 l-30 -7 30 -5 c23 -5 21 -6 -12 -4 -23 1 -39 -2 -37 -6 3
-5 15 -8 26 -8 31 0 19 -6 -25 -13 -33 -5 -37 -4 -27 8 15 18 9 19 -24 4 -14
-7 -23 -16 -20 -20 3 -5 -1 -6 -8 -4 -8 3 -22 -1 -33 -9 -20 -15 -20 -15 2
-10 15 4 25 0 33 -16 6 -12 9 -24 6 -28 -3 -3 -6 0 -6 8 0 10 -3 10 -15 0 -18
-15 -20 1 -3 18 9 9 9 12 1 12 -7 0 -15 -4 -18 -10 -3 -5 -16 -15 -28 -20 -21
-11 -21 -11 -3 4 16 13 17 16 4 16 -19 0 -40 -24 -30 -35 4 -5 2 -5 -4 -2 -6
4 -26 -13 -44 -36 -57 -72 -57 -72 -40 -62 8 4 5 -3 -6 -16 -12 -13 -25 -35
-29 -49 -5 -19 -4 -21 4 -10 6 8 11 10 11 4 0 -6 -7 -17 -16 -25 -10 -8 -13
-21 -9 -37 4 -15 2 -21 -5 -17 -6 4 -10 -13 -10 -49 0 -65 18 -158 30 -151 4
2 8 -6 8 -19 0 -29 36 -92 58 -100 8 -3 13 -10 10 -15 -10 -15 95 -102 159
-132 64 -30 198 -55 203 -39 2 6 10 10 18 10 9 0 13 -4 10 -9 -9 -14 92 13
157 42 32 15 56 31 52 37 -3 6 0 7 9 4 9 -4 18 1 22 10 3 9 10 14 14 11 15 -9
92 86 122 151 34 74 48 198 29 269 l-11 40 5 -38 c3 -34 2 -36 -12 -22 -8 9
-13 25 -10 35 3 11 -1 23 -8 28 -10 5 -11 12 -5 22 8 13 10 12 10 -2 0 -10 5
-18 10 -18 13 0 13 3 -1 34 -7 14 -15 23 -20 21 -4 -3 -5 3 -3 12 6 23 -19 58
-34 49 -7 -4 -12 -15 -12 -25 0 -18 -35 -61 -49 -61 -5 0 -16 10 -24 23 l-16
22 0 -27 c-1 -17 -9 -32 -22 -39 -15 -7 -19 -17 -15 -32 3 -14 -2 -29 -14 -42
-10 -11 -27 -29 -38 -40 -16 -18 -108 -100 -139 -126 -9 -7 -13 -6 -13 1 0 6
-4 9 -9 6 -4 -3 -6 -17 -3 -31 3 -20 0 -25 -16 -25 -12 0 -24 5 -28 11 -4 8
-9 7 -15 -2 -13 -21 -11 -29 7 -22 15 5 15 3 -1 -20 -22 -35 -34 -33 -68 8
-27 33 -28 35 -11 60 9 14 20 25 25 25 5 0 9 7 9 15 0 8 4 15 9 15 5 0 24 16
42 35 19 19 39 35 46 35 7 0 10 7 7 15 -4 9 0 15 10 15 9 0 16 7 16 15 0 8 4
15 9 15 5 0 42 34 82 75 41 41 80 75 87 75 6 0 12 7 12 15 0 8 18 26 39 41 23
15 38 32 37 42 -3 18 -80 82 -99 82 -6 0 -2 -7 9 -15 18 -14 17 -15 -8 -4 -15
7 -25 15 -23 19 7 11 -52 33 -65 25 -5 -3 -8 -10 -6 -14 3 -4 0 -13 -6 -21 -8
-12 -9 -12 -4 3 3 11 0 17 -9 17 -7 0 -17 5 -21 11 -4 8 0 9 15 4 11 -3 21 -2
21 3 0 20 -137 29 -205 12z m118 -7 c-7 -2 -19 -2 -25 0 -7 3 -2 5 12 5 14 0
19 -2 13 -5z m132 -23 c3 -5 2 -10 -4 -10 -5 0 -13 5 -16 10 -3 6 -2 10 4 10
5 0 13 -4 16 -10z m-90 -18 c-3 -3 -11 0 -18 7 -9 10 -8 11 6 5 10 -3 15 -9
12 -12z m-46 -8 c9 -8 -65 -2 -84 6 -13 6 -2 7 30 3 28 -3 52 -7 54 -9z m-339
-110 c0 -8 -2 -14 -4 -14 -2 0 -13 -3 -23 -6 -17 -6 -17 -6 1 8 12 9 16 20 11
28 -5 9 -4 11 3 6 7 -4 12 -14 12 -22z m701 -69 c-5 -5 -11 -17 -14 -25 -3 -8
-4 -1 -2 15 2 17 4 35 4 40 1 6 5 3 11 -5 5 -8 5 -19 1 -25z m-701 21 c0 -3
-4 -8 -10 -11 -5 -3 -10 -1 -10 4 0 6 5 11 10 11 6 0 10 -2 10 -4z m-76 -61
c-4 -8 -8 -15 -10 -15 -2 0 -4 7 -4 15 0 8 4 15 10 15 5 0 7 -7 4 -15z m26
-15 c0 -5 -5 -10 -11 -10 -5 0 -7 5 -4 10 3 6 8 10 11 10 2 0 4 -4 4 -10z
m724 2 c3 -5 -1 -9 -9 -9 -8 0 -12 4 -9 9 3 4 7 8 9 8 2 0 6 -4 9 -8z m-797
-169 c-2 -16 -4 -5 -4 22 0 28 2 40 4 28 2 -13 2 -35 0 -50z m63 -70 c-1 -16
-8 -39 -16 -53 -10 -16 -13 -18 -8 -5 3 11 6 35 5 53 -1 17 3 32 9 32 5 0 10
-12 10 -27z m-43 -15 c-3 -8 -6 -5 -6 6 -1 11 2 17 5 13 3 -3 4 -12 1 -19z
m827 -23 c-4 -8 -11 -15 -16 -15 -6 0 -5 6 2 15 7 8 14 15 16 15 2 0 1 -7 -2
-15z m-14 -54 c0 9 7 22 15 29 21 17 18 0 -5 -30 -21 -28 -25 -27 -33 15 l-6
30 14 -30 c8 -17 14 -23 15 -14z m-764 -26 c0 -19 0 -34 -1 -33 0 2 -9 16 -19
32 -10 16 -13 25 -7 22 6 -4 11 -2 11 3 0 6 3 11 8 11 4 0 7 -16 8 -35z m254
15 c0 -5 -2 -10 -4 -10 -3 0 -8 5 -11 10 -3 6 -1 10 4 10 6 0 11 -4 11 -10z
m504 -23 c4 4 4 0 0 -10 -8 -22 -11 -22 -25 6 -11 19 -10 20 3 10 8 -7 18 -10
22 -6z m-677 -72 c5 -4 2 -5 -4 -1 -16 9 -17 -6 -1 -22 7 -7 8 -12 4 -12 -7 0
-46 38 -46 45 0 6 41 -3 47 -10z m620 0 c0 -5 -9 -19 -20 -30 -17 -17 -19 -17
-14 -3 3 10 2 20 -4 23 -5 4 -7 10 -5 14 7 11 43 8 43 -4z m-536 -67 c1 -7 1
-16 1 -19 -1 -4 13 -10 31 -14 18 -4 27 -9 20 -12 -6 -2 -31 5 -55 16 -24 12
-32 18 -18 15 24 -5 24 -4 6 10 -17 14 -18 16 -3 16 9 0 18 -6 18 -12z m431
-13 c0 -5 -5 -10 -11 -12 -8 -1 -7 0 0 4 8 4 7 8 -2 15 -11 8 -11 9 -1 6 8 -2
14 -8 14 -13z m-39 -2 c-7 -2 -19 -2 -25 0 -7 3 -2 5 12 5 14 0 19 -2 13 -5z
m-240 -60 c-7 -2 -21 -2 -30 0 -10 3 -4 5 12 5 17 0 24 -2 18 -5z"/>
<path d="M8931 6428 c1 -24 3 -27 6 -10 3 14 9 20 16 15 7 -4 6 1 -2 10 -19
24 -21 22 -20 -15z"/>
<path d="M8960 6416 c0 -2 8 -10 18 -17 15 -13 16 -12 3 4 -13 16 -21 21 -21
13z"/>
<path d="M2316 6323 c-6 -14 -5 -15 5 -6 7 7 10 15 7 18 -3 3 -9 -2 -12 -12z"/>
<path d="M9030 6321 c5 -11 15 -23 21 -27 6 -3 3 5 -6 20 -20 30 -30 35 -15 7z"/>
<path d="M8943 6275 c0 -33 2 -45 4 -27 2 18 2 45 0 60 -2 15 -4 0 -4 -33z"/>
<path d="M2260 6276 c0 -9 5 -16 10 -16 6 0 10 4 10 9 0 6 -4 13 -10 16 -5 3
-10 -1 -10 -9z"/>
<path d="M9063 6265 c0 -8 4 -12 9 -9 5 3 6 10 3 15 -9 13 -12 11 -12 -6z"/>
<path d="M8952 6130 c0 -19 2 -27 5 -17 2 9 2 25 0 35 -3 9 -5 1 -5 -18z"/>
<path d="M796 5892 c-2 -4 13 -6 35 -4 21 2 39 6 39 8 0 7 -69 4 -74 -4z"/>
<path d="M988 5893 c12 -2 30 -2 40 0 9 3 -1 5 -23 4 -22 0 -30 -2 -17 -4z"/>
<path d="M728 5883 c7 -3 16 -2 19 1 4 3 -2 6 -13 5 -11 0 -14 -3 -6 -6z"/>
<path d="M1078 5883 c7 -3 16 -2 19 1 4 3 -2 6 -13 5 -11 0 -14 -3 -6 -6z"/>
<path d="M9290 5871 c0 -6 4 -13 10 -16 6 -3 7 1 4 9 -7 18 -14 21 -14 7z"/>
<path d="M608 5863 c7 -3 16 -2 19 1 4 3 -2 6 -13 5 -11 0 -14 -3 -6 -6z"/>
<path d="M428 5813 c7 -3 16 -2 19 1 4 3 -2 6 -13 5 -11 0 -14 -3 -6 -6z"/>
<path d="M8943 5760 c0 -36 2 -50 4 -32 2 17 2 47 0 65 -2 17 -4 3 -4 -33z"/>
<path d="M473 5803 c9 -2 23 -2 30 0 6 3 -1 5 -18 5 -16 0 -22 -2 -12 -5z"/>
<path d="M598 5783 c7 -3 16 -2 19 1 4 3 -2 6 -13 5 -11 0 -14 -3 -6 -6z"/>
<path d="M1460 5746 c0 -3 9 -10 20 -16 11 -6 20 -8 20 -6 0 3 -9 10 -20 16
-11 6 -20 8 -20 6z"/>
<path d="M810 5716 c0 -2 7 -7 16 -10 8 -3 12 -2 9 4 -6 10 -25 14 -25 6z"/>
<path d="M1510 5717 c0 -3 12 -12 26 -22 15 -9 23 -12 20 -6 -7 11 -46 35 -46
28z"/>
<path d="M9370 5701 c0 -6 4 -13 10 -16 6 -3 7 1 4 9 -7 18 -14 21 -14 7z"/>
<path d="M850 5696 c0 -2 7 -7 16 -10 8 -3 12 -2 9 4 -6 10 -25 14 -25 6z"/>
<path d="M926 5661 c-3 -5 2 -15 12 -22 15 -13 16 -12 4 3 -10 13 -10 17 0 21
9 4 9 6 1 6 -6 1 -14 -3 -17 -8z"/>
<path d="M8932 5630 c0 -19 2 -27 5 -17 2 9 2 25 0 35 -3 9 -5 1 -5 -18z"/>
<path d="M9410 5615 c0 -5 5 -17 10 -25 5 -8 10 -10 10 -5 0 6 -5 17 -10 25
-5 8 -10 11 -10 5z"/>
<path d="M997 5589 c7 -7 15 -10 18 -7 3 3 -2 9 -12 12 -14 6 -15 5 -6 -5z"/>
<path d="M1654 5588 c-4 -7 -3 -10 1 -5 11 10 46 -23 38 -36 -3 -5 -1 -7 5 -3
5 3 13 0 15 -6 3 -7 6 -8 6 -2 1 5 -12 23 -28 38 -22 21 -31 25 -37 14z"/>
<path d="M1043 5583 c9 -2 23 -2 30 0 6 3 -1 5 -18 5 -16 0 -22 -2 -12 -5z"/>
<path d="M1098 5583 c7 -3 16 -2 19 1 4 3 -2 6 -13 5 -11 0 -14 -3 -6 -6z"/>
<path d="M1138 5583 c7 -3 16 -2 19 1 4 3 -2 6 -13 5 -11 0 -14 -3 -6 -6z"/>
<path d="M1248 5573 c6 -2 18 -2 25 0 6 3 1 5 -13 5 -14 0 -19 -2 -12 -5z"/>
<path d="M1308 5563 c7 -3 16 -2 19 1 4 3 -2 6 -13 5 -11 0 -14 -3 -6 -6z"/>
<path d="M8922 5510 c0 -19 2 -27 5 -17 2 9 2 25 0 35 -3 9 -5 1 -5 -18z"/>
<path d="M1745 5500 c10 -11 20 -20 23 -20 3 0 -3 9 -13 20 -10 11 -20 20 -23
20 -3 0 3 -9 13 -20z"/>
<path d="M9460 5491 c0 -6 4 -13 10 -16 6 -3 7 1 4 9 -7 18 -14 21 -14 7z"/>
<path d="M1780 5453 c0 -6 8 -17 18 -24 16 -13 16 -13 2 6 -8 11 -16 22 -17
24 -2 2 -3 0 -3 -6z"/>
<path d="M8912 5425 c0 -16 2 -22 5 -12 2 9 2 23 0 30 -3 6 -5 -1 -5 -18z"/>
<path d="M1766 5427 c3 -10 9 -15 12 -12 3 3 0 11 -7 18 -10 9 -11 8 -5 -6z"/>
<path d="M1810 5404 c1 -10 50 -73 50 -63 0 3 -11 20 -25 39 -14 19 -25 30
-25 24z"/>
<path d="M1152 5375 c0 -16 2 -22 5 -12 2 9 2 23 0 30 -3 6 -5 -1 -5 -18z"/>
<path d="M1700 5348 c24 -27 45 -48 47 -48 8 0 0 9 -44 50 l-48 45 45 -47z"/>
<path d="M1161 5304 c0 -11 3 -14 6 -6 3 7 2 16 -1 19 -3 4 -6 -2 -5 -13z"/>
<path d="M1361 5283 c7 -12 15 -20 18 -17 3 2 -3 12 -13 22 -17 16 -18 16 -5
-5z"/>
<path d="M1880 5291 c0 -6 4 -13 10 -16 6 -3 7 1 4 9 -7 18 -14 21 -14 7z"/>
<path d="M8891 5284 c0 -11 3 -14 6 -6 3 7 2 16 -1 19 -3 4 -6 -2 -5 -13z"/>
<path d="M8881 5224 c0 -11 3 -14 6 -6 3 7 2 16 -1 19 -3 4 -6 -2 -5 -13z"/>
<path d="M1916 5217 c3 -10 9 -15 12 -12 3 3 0 11 -7 18 -10 9 -11 8 -5 -6z"/>
<path d="M1825 5200 c10 -11 20 -20 23 -20 3 0 -3 9 -13 20 -10 11 -20 20 -23
20 -3 0 3 -9 13 -20z"/>
<path d="M9561 5194 c0 -11 3 -14 6 -6 3 7 2 16 -1 19 -3 4 -6 -2 -5 -13z"/>
<path d="M8871 5174 c0 -11 3 -14 6 -6 3 7 2 16 -1 19 -3 4 -6 -2 -5 -13z"/>
<path d="M1450 5156 c0 -2 8 -10 18 -17 15 -13 16 -12 3 4 -13 16 -21 21 -21
13z"/>
<path d="M1252 5114 c10 -10 20 -16 22 -13 3 3 -5 11 -17 18 -21 13 -21 12 -5
-5z"/>
<path d="M8861 5114 c0 -11 3 -14 6 -6 3 7 2 16 -1 19 -3 4 -6 -2 -5 -13z"/>
<path d="M1895 5100 c3 -5 8 -10 11 -10 2 0 4 5 4 10 0 6 -5 10 -11 10 -5 0
-7 -4 -4 -10z"/>
<path d="M3989 5063 l-34 -38 38 34 c20 19 37 36 37 38 0 8 -8 0 -41 -34z"/>
<path d="M1300 5055 c13 -14 26 -25 28 -25 3 0 -5 11 -18 25 -13 14 -26 25
-28 25 -3 0 5 -11 18 -25z"/>
<path d="M1926 5048 c8 -15 17 -28 20 -28 2 0 0 9 -6 20 -6 11 -9 24 -6 29 3
4 -1 8 -9 8 -12 0 -12 -5 1 -29z"/>
<path d="M8851 5064 c0 -11 3 -14 6 -6 3 7 2 16 -1 19 -3 4 -6 -2 -5 -13z"/>
<path d="M1554 5044 c2 -11 5 -17 9 -14 3 3 16 -4 29 -16 13 -12 30 -25 38
-29 9 -5 11 -4 5 1 -5 5 -27 24 -47 43 -29 26 -36 30 -34 15z"/>
<path d="M5698 5023 c10 -4 9 -9 -5 -20 -17 -13 -16 -13 5 -3 22 11 22 31 -1
29 -8 0 -8 -2 1 -6z"/>
<path d="M8841 5014 c0 -11 3 -14 6 -6 3 7 2 16 -1 19 -3 4 -6 -2 -5 -13z"/>
<path d="M3895 4978 l-40 -43 43 40 c39 36 47 45 39 45 -2 0 -21 -19 -42 -42z"/>
<path d="M9611 5004 c0 -11 3 -14 6 -6 3 7 2 16 -1 19 -3 4 -6 -2 -5 -13z"/>
<path d="M1395 4980 c10 -11 20 -20 23 -20 3 0 -3 9 -13 20 -10 11 -20 20 -23
20 -3 0 3 -9 13 -20z"/>
<path d="M1435 4971 c-3 -5 -2 -12 3 -15 5 -3 9 1 9 9 0 17 -3 19 -12 6z"/>
<path d="M9621 4964 c0 -11 3 -14 6 -6 3 7 2 16 -1 19 -3 4 -6 -2 -5 -13z"/>
<path d="M1986 4937 c3 -10 9 -15 12 -12 3 3 0 11 -7 18 -10 9 -11 8 -5 -6z"/>
<path d="M2021 4933 c-1 -12 4 -25 9 -28 12 -7 12 2 0 30 -8 19 -9 19 -9 -2z"/>
<path d="M1460 4936 c0 -2 7 -7 16 -10 8 -3 12 -2 9 4 -6 10 -25 14 -25 6z"/>
<path d="M9632 4920 c0 -14 2 -19 5 -12 2 6 2 18 0 25 -3 6 -5 1 -5 -13z"/>
<path d="M1750 4920 c8 -5 20 -10 25 -10 6 0 3 5 -5 10 -8 5 -19 10 -25 10 -5
0 -3 -5 5 -10z"/>
<path d="M1500 4916 c0 -2 7 -7 16 -10 8 -3 12 -2 9 4 -6 10 -25 14 -25 6z"/>
<path d="M3787 4885 c-15 -14 -24 -25 -19 -25 5 0 19 11 32 25 30 32 23 32
-13 0z"/>
<path d="M8811 4874 c0 -11 3 -14 6 -6 3 7 2 16 -1 19 -3 4 -6 -2 -5 -13z"/>
<path d="M9641 4874 c0 -11 3 -14 6 -6 3 7 2 16 -1 19 -3 4 -6 -2 -5 -13z"/>
<path d="M1803 4823 c9 -2 23 -2 30 0 6 3 -1 5 -18 5 -16 0 -22 -2 -12 -5z"/>
<path d="M3714 4808 l-19 -23 23 19 c12 11 22 21 22 23 0 8 -8 2 -26 -19z"/>
<path d="M1933 4813 c20 -2 54 -2 75 0 20 2 3 4 -38 4 -41 0 -58 -2 -37 -4z"/>
<path d="M9661 4774 c0 -11 3 -14 6 -6 3 7 2 16 -1 19 -3 4 -6 -2 -5 -13z"/>
<path d="M8781 4754 c0 -11 3 -14 6 -6 3 7 2 16 -1 19 -3 4 -6 -2 -5 -13z"/>
<path d="M9672 4710 c0 -14 2 -19 5 -12 2 6 2 18 0 25 -3 6 -5 1 -5 -13z"/>
<path d="M3579 4663 c-13 -16 -12 -17 4 -4 16 13 21 21 13 21 -2 0 -10 -8 -17
-17z"/>
<path d="M9682 4640 c0 -14 2 -19 5 -12 2 6 2 18 0 25 -3 6 -5 1 -5 -13z"/>
<path d="M3510 4585 c-18 -19 -32 -36 -29 -38 2 -2 19 14 38 35 42 48 36 50
-9 3z"/>
<path d="M9692 4565 c0 -16 2 -22 5 -12 2 9 2 23 0 30 -3 6 -5 -1 -5 -18z"/>
<path d="M6445 4570 c3 -5 8 -10 11 -10 2 0 4 5 4 10 0 6 -5 10 -11 10 -5 0
-7 -4 -4 -10z"/>
<path d="M8721 4544 c0 -11 3 -14 6 -6 3 7 2 16 -1 19 -3 4 -6 -2 -5 -13z"/>
<path d="M3434 4493 c-15 -20 -23 -33 -16 -29 13 8 56 66 49 66 -3 0 -17 -17
-33 -37z"/>
<path d="M8706 4494 c-4 -14 -5 -28 -3 -31 3 -2 8 8 11 23 4 14 5 28 3 31 -3
2 -8 -8 -11 -23z"/>
<path d="M9702 4490 c0 -19 2 -27 5 -17 2 9 2 25 0 35 -3 9 -5 1 -5 -18z"/>
<path d="M6259 4488 c-11 -8 -11 -9 2 -5 9 3 22 0 28 -6 8 -8 11 -8 11 0 0 16
-25 23 -41 11z"/>
<path d="M4545 4469 c-4 -6 -5 -12 -2 -15 2 -3 7 2 10 11 7 17 1 20 -8 4z"/>
<path d="M3385 4429 c-4 -6 -5 -12 -2 -15 2 -3 7 2 10 11 7 17 1 20 -8 4z"/>
<path d="M8661 4363 c-1 -6 -4 -20 -7 -30 -5 -17 -5 -17 6 0 6 10 9 23 6 30
-3 9 -5 9 -5 0z"/>
<path d="M9713 4325 c0 -27 2 -38 4 -22 2 15 2 37 0 50 -2 12 -4 0 -4 -28z"/>
<path d="M9711 4244 c0 -11 3 -14 6 -6 3 7 2 16 -1 19 -3 4 -6 -2 -5 -13z"/>
<path d="M8606 4205 c-9 -26 -7 -32 5 -12 6 10 9 21 6 23 -2 3 -7 -2 -11 -11z"/>
<path d="M4207 4136 c-4 -10 -1 -13 9 -9 15 6 19 23 5 23 -5 0 -11 -7 -14 -14z"/>
<path d="M9713 3925 c0 -22 2 -30 4 -17 2 12 2 30 0 40 -3 9 -5 -1 -4 -23z"/>
<path d="M8490 3911 c0 -6 4 -13 10 -16 6 -3 7 1 4 9 -7 18 -14 21 -14 7z"/>
<path d="M8456 3835 c-9 -26 -7 -32 5 -12 6 10 9 21 6 23 -2 3 -7 -2 -11 -11z"/>
<path d="M9701 3824 c0 -11 3 -14 6 -6 3 7 2 16 -1 19 -3 4 -6 -2 -5 -13z"/>
<path d="M3970 3820 c0 -5 5 -10 10 -10 6 0 10 5 10 10 0 6 -4 10 -10 10 -5 0
-10 -4 -10 -10z"/>
<path d="M9702 3780 c0 -14 2 -19 5 -12 2 6 2 18 0 25 -3 6 -5 1 -5 -13z"/>
<path d="M8426 3763 c-6 -14 -5 -15 5 -6 7 7 10 15 7 18 -3 3 -9 -2 -12 -12z"/>
<path d="M9693 3710 c0 -25 2 -35 4 -22 2 12 2 32 0 45 -2 12 -4 2 -4 -23z"/>
<path d="M8386 3685 c-9 -26 -7 -32 5 -12 6 10 9 21 6 23 -2 3 -7 -2 -11 -11z"/>
<path d="M9682 3620 c0 -14 2 -19 5 -12 2 6 2 18 0 25 -3 6 -5 1 -5 -13z"/>
<path d="M9662 3495 c0 -16 2 -22 5 -12 2 9 2 23 0 30 -3 6 -5 -1 -5 -18z"/>
<path d="M8296 3493 c-6 -14 -5 -15 5 -6 7 7 10 15 7 18 -3 3 -9 -2 -12 -12z"/>
<path d="M9642 3380 c0 -14 2 -19 5 -12 2 6 2 18 0 25 -3 6 -5 1 -5 -13z"/>
<path d="M8226 3363 c-6 -14 -5 -15 5 -6 7 7 10 15 7 18 -3 3 -9 -2 -12 -12z"/>
<path d="M9631 3334 c0 -11 3 -14 6 -6 3 7 2 16 -1 19 -3 4 -6 -2 -5 -13z"/>
<path d="M8195 3310 c-9 -16 -13 -30 -11 -30 3 0 12 14 21 30 9 17 13 30 11
30 -3 0 -12 -13 -21 -30z"/>
<path d="M9616 3274 c-4 -14 -5 -28 -3 -31 3 -2 8 8 11 23 4 14 5 28 3 31 -3
2 -8 -8 -11 -23z"/>
<path d="M8140 3210 c-6 -11 -8 -20 -6 -20 3 0 10 9 16 20 6 11 8 20 6 20 -3
0 -10 -9 -16 -20z"/>
<path d="M7979 2953 c-13 -16 -12 -17 4 -4 16 13 21 21 13 21 -2 0 -10 -8 -17
-17z"/>
<path d="M7939 2893 c-13 -16 -12 -17 4 -4 16 13 21 21 13 21 -2 0 -10 -8 -17
-17z"/>
<path d="M4115 2840 c-3 -6 1 -7 9 -4 18 7 21 14 7 14 -6 0 -13 -4 -16 -10z"/>
<path d="M7899 2833 c-13 -16 -12 -17 4 -4 16 13 21 21 13 21 -2 0 -10 -8 -17
-17z"/>
<path d="M4080 2760 c0 -5 5 -10 10 -10 6 0 10 5 10 10 0 6 -4 10 -10 10 -5 0
-10 -4 -10 -10z"/>
<path d="M4000 2730 c0 -5 5 -10 10 -10 6 0 10 5 10 10 0 6 -4 10 -10 10 -5 0
-10 -4 -10 -10z"/>
<path d="M7825 2729 c-4 -6 -5 -12 -2 -15 2 -3 7 2 10 11 7 17 1 20 -8 4z"/>
<path d="M3978 2643 c7 -3 16 -2 19 1 4 3 -2 6 -13 5 -11 0 -14 -3 -6 -6z"/>
<path d="M7749 2623 c-13 -16 -12 -17 4 -4 9 7 17 15 17 17 0 8 -8 3 -21 -13z"/>
<path d="M3840 2569 c0 -5 5 -7 10 -4 6 3 10 8 10 11 0 2 -4 4 -10 4 -5 0 -10
-5 -10 -11z"/>
<path d="M7679 2533 c-13 -16 -12 -17 4 -4 9 7 17 15 17 17 0 8 -8 3 -21 -13z"/>
<path d="M7649 2493 c-13 -16 -12 -17 4 -4 16 13 21 21 13 21 -2 0 -10 -8 -17
-17z"/>
<path d="M7619 2453 c-13 -16 -12 -17 4 -4 16 13 21 21 13 21 -2 0 -10 -8 -17
-17z"/>
<path d="M5836 1672 c-3 -5 1 -9 9 -9 8 0 12 4 9 9 -3 4 -7 8 -9 8 -2 0 -6 -4
-9 -8z"/>
<path d="M5749 1603 c-13 -17 -13 -17 6 -3 11 8 22 16 24 17 2 2 0 3 -6 3 -6
0 -17 -8 -24 -17z"/>
<path d="M5709 1573 c-13 -16 -12 -17 4 -4 16 13 21 21 13 21 -2 0 -10 -8 -17
-17z"/>
<path d="M5605 1490 c-20 -22 -30 -54 -13 -44 5 3 7 9 4 12 -4 3 4 16 16 29
12 13 19 23 16 23 -3 0 -13 -9 -23 -20z"/>
<path d="M5535 1430 c-16 -17 -16 -20 -3 -15 9 4 19 13 22 21 7 19 2 18 -19
-6z"/>
<path d="M5439 1353 c-13 -17 -13 -17 6 -3 11 8 22 16 24 17 2 2 0 3 -6 3 -6
0 -17 -8 -24 -17z"/>
<path d="M5355 1290 c-3 -6 1 -7 9 -4 18 7 21 14 7 14 -6 0 -13 -4 -16 -10z"/>
<path d="M5314 1258 l-19 -23 23 19 c21 18 27 26 19 26 -2 0 -12 -10 -23 -22z"/>
<path d="M5149 1143 c-13 -16 -12 -17 4 -4 9 7 17 15 17 17 0 8 -8 3 -21 -13z"/>
<path d="M5079 1099 l-24 -20 28 17 c15 9 27 18 27 20 0 8 -8 4 -31 -17z"/>
</g>
</svg>
